<?xml version="1.0" standalone="no"?>
<!DOCTYPE svg PUBLIC "-//W3C//DTD SVG 1.1//EN" "http://www.w3.org/Graphics/SVG/1.1/DTD/svg11.dtd" >
<svg xmlns="http://www.w3.org/2000/svg" xmlns:xlink="http://www.w3.org/1999/xlink" version="1.1">
<metadata></metadata>
<defs>
<font id="airstrikeregular" horiz-adv-x="1546" >
<font-face units-per-em="2048" ascent="1638" descent="-410" />
<missing-glyph horiz-adv-x="571" />
<glyph horiz-adv-x="0" />
<glyph unicode="&#xd;" horiz-adv-x="1024" />
<glyph unicode=" "  horiz-adv-x="571" />
<glyph unicode="&#x09;" horiz-adv-x="571" />
<glyph unicode="&#xa0;" horiz-adv-x="571" />
<glyph unicode="!" horiz-adv-x="507" d="M137 96q0 -43 30 -69.5t83 -26.5q33 0 65.5 11.5t59.5 29.5q43 31 67.5 74t24.5 78q0 41 -29.5 68.5t-83.5 27.5q-66 0 -125 -43.5t-84 -102.5q-8 -16 -8 -47zM184 350h394l268 735h-393z" />
<glyph unicode="&#x22;" horiz-adv-x="667" d="M373 811q0 41 6 70l27 75q20 53 70 92t104 39q43 0 66.5 -23.5t23.5 -59.5q0 -31 -8 -48l-27 -75q-10 -27 -36 -58.5t-54.5 -59.5t-57 -47.5t-43.5 -19.5h-16q-33 0 -44 37t-11 78zM670 811q0 41 6 70l26 75q20 53 70.5 92t104.5 39q43 0 66.5 -23.5t23.5 -59.5 q0 -31 -9 -48l-26 -75q-10 -27 -36 -58.5t-54.5 -59.5t-57 -47.5t-43.5 -19.5h-16q-33 0 -44 37t-11 78z" />
<glyph unicode="#" horiz-adv-x="1529" d="M113 209l293 276h65l39 107h-258l293 276h65l80 217h393l-79 -217h157l80 217h393l-80 -217h254l-292 -276h-62l-39 -107h254l-293 -276h-61l-76 -209h-393l76 209h-158l-76 -209h-393l76 209h-258zM864 485h158l39 107h-158z" />
<glyph unicode="$" horiz-adv-x="1351" d="M80 0q10 20 42 65.5t67.5 91.5t66.5 81.5t37 35.5h362l47 134h-245q-45 0 -72 16t-41 43t-18 62.5t-4 74.5v119q0 49 28.5 111.5t74.5 119t103.5 94t114.5 37.5h307l103 285h258l-103 -285h480q-47 -70 -107.5 -139t-134.5 -139h-340l-47 -133h106q66 0 113 -32t76.5 -80 t44 -103.5t14.5 -102.5v-12q0 -53 -24.5 -113.5t-64.5 -111.5t-92 -85t-108 -34h-311l-104 -289h-258l104 289h-475zM715 717q0 -2 8 -9.5t12 -11.5q8 -8 23.5 -15t17.5 -7h25l47 133h-78q-23 0 -39 -31t-16 -49v-10zM913 274h76q31 0 36 18.5t5 39.5v24q0 16 -6 34t-23 18 h-40z" />
<glyph unicode="%" horiz-adv-x="1613" d="M174 0h350l1317 1085h-354zM350 791q-10 -74 5.5 -122t51 -76t88 -39t113.5 -11h103q53 0 104 21.5t94 56t76 78.5t49 89l8 23q5 17 5 25q12 68 -1.5 114.5t-46 77.5t-84 44t-112.5 13h-135q-47 0 -94.5 -21.5t-89.5 -56t-73.5 -78.5t-48.5 -89q-10 -25 -12 -49zM575 813 l13 33q16 29 46 53.5t56 24.5h62q37 0 51 -19.5t14 -48.5q0 -25 -2 -31l-6 -14q-2 -6 -4 -10l-4 -8q-8 -14 -22.5 -28.5t-30 -25t-29.5 -17.5t-23 -7h-53q-29 0 -51.5 33.5t-16.5 64.5zM973 248q-10 -74 5 -122t51 -75.5t88 -39t114 -11.5h102q53 0 104.5 21.5t94.5 56.5 t75.5 79t49.5 89l8 22q2 10 3 16.5t1 8.5q23 135 -49 192.5t-197 57.5h-135q-47 0 -94 -21.5t-88 -56.5t-73 -79t-48 -89q-10 -25 -12 -49zM1198 270l12 33q16 29 46 53.5t57 24.5h61q39 0 51.5 -19.5t12.5 -48.5q0 -25 -2 -30l-4 -15q-2 -8 -11 -18q-16 -29 -50 -53.5 t-52 -24.5h-53q-29 0 -51.5 33.5t-16.5 64.5z" />
<glyph unicode="&#x26;" horiz-adv-x="1638" d="M125 125q0 29 8 64.5t23 78.5l10 31q10 27 27.5 62.5t37.5 62.5q33 41 69 63.5t56 38.5q-23 12 -32 42t-9 67q0 47 11.5 93t27.5 77l13 33q14 41 38.5 85t71.5 79.5t127 59t205 23.5h750q-49 -72 -105.5 -141.5t-124.5 -136.5h-495q-10 0 -37 -11.5t-37 -33.5l-115 -320 l275 238h929l-293 -277h-65q-4 -27 -12.5 -54t-18.5 -50l-10 -31q-31 -72 -60.5 -123t-76.5 -82.5t-122 -47t-196 -15.5h-581q-84 0 -139.5 7t-89 22.5t-47 39t-13.5 56.5zM602 324q6 -10 20.5 -27.5t18.5 -17.5h328l10 5t22.5 12t24.5 14t18 14l4 4q3 4 5 6l4 10 q4 6 12 31.5t8 40.5h-444z" />
<glyph unicode="'" horiz-adv-x="370" d="M373 811q0 41 6 70l27 75q20 53 70 92t104 39q43 0 66.5 -23.5t23.5 -59.5q0 -31 -8 -48l-27 -75q-10 -27 -36 -58.5t-54.5 -59.5t-57 -47.5t-43.5 -19.5h-16q-33 0 -44 37t-11 78z" />
<glyph unicode="(" horiz-adv-x="839" d="M244 418q0 -96 26.5 -169t70.5 -126t98.5 -88t109.5 -57.5t105.5 -35t84.5 -18.5q14 31 30.5 65t30 66.5t22.5 60t9 46.5v12q-14 18 -48.5 49t-69.5 68t-62.5 78t-27.5 82v2q0 12 11 45.5t21 62.5l17 49q12 35 34.5 77t52 79t62.5 61.5t68 24.5h35q74 61 134 130t120 146 h-349q-72 0 -143.5 -33.5t-136 -90t-120.5 -129t-97 -151.5t-64.5 -157t-23.5 -143v-2v-4z" />
<glyph unicode=")" horiz-adv-x="837" d="M45 -76h348q72 0 142.5 34t136 90t121 129t96.5 152t64.5 156.5t23.5 143.5v2v6q0 96 -27.5 169t-70.5 125t-97.5 88t-110 57.5t-104.5 33.5t-84 18q-16 -29 -32.5 -63.5t-30.5 -69t-22.5 -64.5t-8.5 -46v-13q31 -18 67 -47.5t67.5 -66.5t53 -77t21.5 -79 q-2 -12 -13.5 -51t-23.5 -74l-12 -35q-12 -35 -36 -76.5t-53.5 -78.5t-62 -61.5t-65.5 -24.5h-35q-74 -61 -133.5 -130t-118.5 -147z" />
<glyph unicode="*" horiz-adv-x="503" d="M395 928l99 67l-86 23l108 158l59 -52l25 95h178l-49 -95l107 47v-157l-115 -19l49 -71l-178 -109l-14 98l-86 -98z" />
<glyph unicode="+" horiz-adv-x="944" d="M182 399l293 277h111l78 211h276l-78 -211h291l-293 -277h-98l-72 -198h-276l71 198h-303z" />
<glyph unicode="," horiz-adv-x="425" d="M76 -2v31q0 22 2 28l31 86q25 59 84 102.5t124 43.5q53 0 83 -28t30 -68q0 -14 -10 -50l-31 -86q-10 -29 -38.5 -64.5t-63.5 -66t-69 -52t-52 -21.5h-19q-23 0 -37 13t-21 34.5t-10 47t-3 50.5z" />
<glyph unicode="-" horiz-adv-x="739" d="M182 399h473l293 277h-473z" />
<glyph unicode="." horiz-adv-x="425" d="M100 96q0 -43 30 -69.5t83 -26.5q33 0 65.5 11.5t59.5 29.5q43 31 67.5 74t24.5 78q0 41 -29.5 68.5t-83.5 27.5q-66 0 -124.5 -43.5t-83.5 -102.5q-8 -16 -9 -47z" />
<glyph unicode="/" horiz-adv-x="1345" d="M37 0l1229 1085h438l-1231 -1085h-436z" />
<glyph unicode="0" horiz-adv-x="1476" d="M231 391q0 -115 40 -190.5t110 -119.5t166 -62.5t209 -18.5h205q123 0 237.5 54.5t205.5 140.5t152.5 190.5t75.5 202.5q4 31 7 58.5t3 53.5q0 102 -36.5 176t-103 120t-159 67.5t-202.5 21.5h-271q-109 0 -215 -54t-194 -140t-147.5 -190.5t-73.5 -202.5 q-4 -29 -6.5 -55.5t-2.5 -51.5zM623 500v12q0 12 2 14q2 16 10 38t18 46q18 35 50 71t69 64.5t75 46t71 17.5h165q51 0 83 -15.5t50.5 -41t24.5 -58t6 -65.5q0 -18 -1 -36t-3 -34q0 2 -4 -18l-8 -21q-4 -16 -23 -45q-18 -35 -54 -70.5t-76 -64.5t-77.5 -46.5t-62.5 -17.5 h-135q-37 0 -70 20.5t-57.5 53.5t-38.5 73t-14 77z" />
<glyph unicode="1" horiz-adv-x="665" d="M215 0h393l396 1085h-420q-29 -18 -69 -60t-78 -87t-65.5 -82t-29.5 -45v-2h168z" />
<glyph unicode="2" horiz-adv-x="1353" d="M115 131q0 51 20.5 108.5t57.5 110.5q33 45 92 100.5t126.5 103.5t137 80t123.5 32h389q2 0 26.5 11t38.5 19q8 4 20.5 11.5t12.5 9.5l8 10q20 20 21 55q0 25 -19 25h-815q20 33 50 70.5t64 74.5t66.5 71t61.5 62h905q63 0 93 -45t30 -110q0 -53 -17.5 -107.5 t-50.5 -101.5q-37 -51 -97 -107.5t-131 -104.5t-143.5 -79t-131.5 -31h-410q-16 0 -32.5 -13t-28.5 -30l-39 -67q0 -14 22 -15h830l-25 -32q-24 -31 -60 -74t-76 -90t-73 -78h-932q-59 0 -86.5 38t-27.5 93z" />
<glyph unicode="3" horiz-adv-x="1374" d="M57 0h904q121 0 195.5 15.5t121.5 47t76.5 83t60.5 122.5l8 23q10 27 21.5 64.5t11.5 66.5q-2 41 -22.5 63.5t-28.5 38.5q29 12 57.5 39t51 63t36 75.5t13.5 78.5v4q0 41 -12.5 93.5t-38 98.5t-64.5 77.5t-92 31.5h-789q-63 -66 -112 -136t-95 -142h766q4 0 19.5 -17.5 t21.5 -27.5l1 -4t3 -6l-4 -11q-2 -6 -9 -17t-15 -23.5t-15.5 -21.5t-9.5 -9h-327l-316 -277h553q0 -14 -1 -28.5t-5 -20.5l-4 -10q-2 -2 -5 -6l-3 -4q-6 -6 -18.5 -13.5t-25 -14.5t-22.5 -12l-10 -5h-668q-57 -59 -106 -130t-103 -149z" />
<glyph unicode="4" horiz-adv-x="1339" d="M199 389l254 696h389l-154 -419h442l154 419h393l-395 -1085h-393l219 602l-211 -213h-698z" />
<glyph unicode="5" horiz-adv-x="1339" d="M66 0h1044q55 0 107.5 34t92.5 85t64.5 111.5t24.5 113.5v8q0 45 -18.5 100.5t-52.5 102.5t-79 79t-98 32h-389q-2 0 -17.5 11t-23.5 19q-4 4 -12.5 11.5t-8.5 9.5v10l29 80h703q74 70 134 139.5t107 138.5h-1231l-133 -362q-2 -10 -3 -19.5t-1 -19.5q0 -49 26.5 -100.5 t66.5 -92t88.5 -66.5t91.5 -26h409q16 0 22.5 -13t6.5 -30q0 -41 -41 -82h-696q-6 0 -37 -35.5t-67 -81.5t-67.5 -91.5t-41.5 -65.5z" />
<glyph unicode="6" horiz-adv-x="1302" d="M260 498q0 -147 58.5 -243.5t154.5 -153t217 -79t248 -22.5q76 0 147.5 35t133 92t108.5 128.5t74 143.5q12 51 12 95q0 72 -38 117.5t-130 64.5h-557q31 53 74 93t94 40h533q72 61 132 130t119 146h-845q-109 0 -205 -54t-170 -138t-117 -188.5t-43 -202.5v-4zM688 416 h252q39 -6 47 -23.5t14 -36.5l-51 -77h-119q-43 0 -72.5 35.5t-58.5 82.5z" />
<glyph unicode="7" horiz-adv-x="1251" d="M115 0h413l1082 1085h-1026q-29 -18 -69 -60t-78 -87t-65.5 -82t-29.5 -45v-2h551z" />
<glyph unicode="8" horiz-adv-x="1437" d="M125 125q0 -33 13.5 -56.5t47 -39t89 -22.5t139.5 -7h610q121 0 195.5 15.5t122 47t77 83t60.5 122.5l14 41q10 25 18.5 54.5t8.5 52.5v6q-2 41 -22.5 63.5t-29.5 38.5q43 18 81 65.5t59 104.5q18 45 18 80v29q0 43 -12 92t-39 91t-66 70.5t-90 28.5h-610 q-125 0 -205 -23.5t-127 -59t-71.5 -79.5t-38.5 -85l-13 -33q-16 -31 -27.5 -77t-11.5 -93q0 -37 9.5 -66.5t31.5 -42.5q-20 -16 -56 -38.5t-69 -63.5q-20 -27 -37.5 -62.5t-27.5 -62.5l-10 -31q-14 -43 -22.5 -78.5t-8.5 -64.5zM602 324l2 6q0 2 1 3t1 3l-2 4l29 76h473 q0 -14 -8 -40t-13 -32l-4 -10q-2 -2 -5 -6l-3 -4q-6 -6 -18.5 -13.5t-24.5 -14.5t-22 -12l-11 -5h-356q-4 0 -18.5 17t-20.5 28zM645 442l115 320q10 23 36.5 34t37.5 11h356q6 -2 20.5 -18.5t20.5 -26.5v-21q-4 -12 -20.5 -36.5t-22.5 -24.5h-268z" />
<glyph unicode="9" horiz-adv-x="1302" d="M57 0h846q104 0 200.5 54.5t170.5 138t118 187t44 202.5v6q0 145 -27 241.5t-98.5 152.5t-200.5 79.5t-334 23.5h-16q-76 0 -147.5 -35.5t-133 -92t-108.5 -128t-74 -143.5q-12 -53 -12 -94q0 -72 37.5 -118t130.5 -64h557q-31 -53 -74 -93.5t-94 -40.5h-533 q-72 -61 -132 -129.5t-120 -146.5zM696 729l49 78h119q45 0 76 -38t59 -85l11 -14h-252q-41 6 -48.5 23.5t-13.5 35.5z" />
<glyph unicode=":" horiz-adv-x="428" d="M102 96q0 -43 30 -69.5t83 -26.5q33 0 65.5 11.5t59.5 29.5q43 31 67.5 74t24.5 78q0 41 -29.5 68.5t-83.5 27.5q-66 0 -124.5 -43.5t-83.5 -102.5q-8 -16 -9 -47zM295 631q0 -43 29.5 -69.5t83.5 -26.5q33 0 65.5 11t58.5 29q43 31 68 74t25 78q0 41 -30 68.5t-83 27.5 q-66 0 -125 -43t-84 -102q-8 -16 -8 -47z" />
<glyph unicode=";" horiz-adv-x="428" d="M76 -2v31q0 22 2 28l31 86q25 59 84 102.5t124 43.5q53 0 83 -28t30 -68q0 -14 -10 -50l-31 -86q-10 -29 -38.5 -64.5t-63.5 -66t-69 -52t-52 -21.5h-19q-23 0 -37 13t-21 34.5t-10 47t-3 50.5zM295 631q0 31 8 47q25 59 84 102t125 43q53 0 83 -27.5t30 -68.5 q0 -18 -10.5 -49t-32.5 -57q-31 -37 -78 -61.5t-96 -24.5q-53 0 -83 26.5t-30 69.5z" />
<glyph unicode="&#x3c;" horiz-adv-x="929" d="M236 545l221 -545h436l-219 545l612 540h-438z" />
<glyph unicode="=" horiz-adv-x="884" d="M115 209h618l293 276h-618zM254 592h618l293 276h-618z" />
<glyph unicode="&#x3e;" horiz-adv-x="929" d="M37 0l616 545l-219 540h438l220 -540l-619 -545h-436z" />
<glyph unicode="?" horiz-adv-x="1339" d="M180 96q0 -43 30 -69.5t83 -26.5q33 0 65.5 11.5t59.5 29.5q43 31 67.5 74t24.5 78q0 41 -29.5 68.5t-83.5 27.5q-66 0 -125 -43.5t-84 -102.5q-8 -16 -8 -47zM285 348h317v2q4 6 35 27.5t96 21.5h305q59 0 132 31t143.5 79t131 104.5t97.5 107.5q33 45 50.5 99t17.5 108 q0 66 -29 111.5t-94 45.5h-905q-29 -29 -62 -62.5t-66.5 -70.5t-63.5 -74.5t-50 -70.5h815q18 0 19 -25q0 -35 -21 -55l-8 -10q0 -2 -12.5 -9.5t-20.5 -11.5q-14 -8 -38.5 -19t-26.5 -11h-285q-53 0 -123 -32t-137.5 -80t-125.5 -103.5t-91 -102.5z" />
<glyph unicode="@" horiz-adv-x="1538" d="M242 418v4q0 88 39 190q33 92 91 184.5t132 167t156.5 120.5t166.5 46h371q35 -6 86 -10t108.5 -15t116 -32.5t104.5 -62.5t74.5 -105.5t28.5 -161.5v-6q0 -82 -28 -168q-49 -135 -159 -180t-278 -45h-348q-86 10 -115.5 57.5t-29.5 114.5v23q0 18 2 24q12 35 41.5 69 t67.5 59.5t81 42t82 16.5q61 0 94 -38t33 -91q0 -18 -10 -60q-4 -6 -5 -11t-5 -9h26q55 0 95 13t57 56q14 29 14 72q0 66 -48 111t-134 59h-262q-33 0 -67 -24.5t-62.5 -61.5t-52 -79t-35.5 -77q-16 -55 -32.5 -101t-16.5 -56v-2q0 -41 27.5 -82t62 -78t69.5 -67.5t49 -49.5 q20 -8 70.5 -13t83.5 -5h12q0 -8 -19.5 -61.5t-60.5 -170.5h-178q-35 6 -85 18.5t-105 35t-109.5 57.5t-98.5 88t-70.5 126t-26.5 169zM918 537q0 -31 30 -31q20 0 39 13t25 34q4 20 4 18q0 29 -33 29q-20 0 -37.5 -13.5t-25.5 -33.5q-2 -2 -2 -16z" />
<glyph unicode="A" d="M41 0h866q14 6 45 39t63 72t57.5 73.5t29.5 46.5l43 -231h364l-135 879q-6 25 -15 60.5t-21.5 68t-30 55t-37.5 22.5h-344q-14 0 -36 -15t-43.5 -34.5t-40 -40t-24.5 -32.5l-737 -943v-6q0 2 -4 -14zM686 274v21l344 461l72 -482h-416z" />
<glyph unicode="B" horiz-adv-x="1411" d="M57 0h940q109 0 181.5 15.5t124 47t85 83t64.5 122.5l8 23q10 27 20.5 55.5t10.5 56.5q-2 41 -20.5 75t-40.5 52q25 12 54 38t55 60t43 72.5t17 79.5v4q0 57 -9 112.5t-32.5 96.5t-63.5 66.5t-101 25.5h-940zM551 279l53 137h471q0 -14 -1 -28.5t-5 -20.5l-4 -11 q-2 -2 -10 -17l-8 -15q-6 -6 -18.5 -13.5t-25 -14.5t-22.5 -12l-10 -5h-420zM631 496l112 311h420q4 0 19.5 -17.5t21.5 -27.5l1 -4t3 -6l-4 -11q-2 -6 -9 -17t-15.5 -23.5t-15.5 -21.5t-9 -9h-328z" />
<glyph unicode="C" horiz-adv-x="1292" d="M260 498q0 -147 58.5 -243.5t154.5 -153t217 -79t248 -22.5h164q78 61 137 134t107 142h-490q-35 0 -73 25t-69.5 61.5t-52 80.5t-20.5 83q0 31 16 84q12 35 35 71t50.5 64.5t57 46t56.5 17.5h533q72 61 132 130t119 146h-845q-109 0 -205 -54t-170 -138t-117 -188.5 t-43 -202.5v-4z" />
<glyph unicode="D" horiz-adv-x="1347" d="M57 0l396 1085h890q123 0 178.5 -67.5t55.5 -171.5q0 -80 -31 -173t-94 -179q-84 -133 -173 -226.5t-193.5 -153t-231.5 -87t-287 -27.5h-510zM555 276h53q49 0 114.5 21.5t131.5 56.5t121 79t84 89q10 16 26.5 37t26.5 47q12 33 25.5 63.5t13.5 57.5q0 35 -15.5 58.5 t-54.5 23.5h-331z" />
<glyph unicode="E" horiz-adv-x="1280" d="M57 0h1030q2 0 26 20.5t54.5 50t62.5 62.5t50 57q2 2 10 14.5t16.5 27t16.5 27.5t10 17h-784l45 123h407l293 277h-473l-194 -189l116 322h631q16 0 52 32.5t74 78t72 91.5t48 74h-1167z" />
<glyph unicode="F" horiz-adv-x="1271" d="M57 0h392l145 399h407l293 277h-473l-194 -189l116 322h631q16 0 52 32.5t74 78t72 91.5t48 74h-1167z" />
<glyph unicode="G" horiz-adv-x="1310" d="M260 498q0 98 43 202.5t117 190.5t170 140t205 54h845q-59 -78 -119.5 -146.5t-131.5 -129.5h-533q-33 0 -63.5 -17.5t-56 -46t-46 -64.5t-33.5 -71q-16 -53 -16 -84q0 -39 19.5 -83t51 -80.5t69.5 -61.5t75 -25h121l47 134h-231v2q2 6 25.5 39.5t56 75.5t68.5 84t65 65 h491l-256 -676h-305q-127 0 -248 22.5t-217 79t-154.5 152.5t-58.5 244z" />
<glyph unicode="H" horiz-adv-x="1339" d="M57 0h394l141 389h442l-141 -389h389l395 1085h-389l-153 -419h-312l-209 -215l232 634h-393z" />
<glyph unicode="I" horiz-adv-x="1261" d="M47 0h1022q16 0 52 33t74 78t71.5 91t48.5 74h-387l194 533h242q16 0 52 32.5t74 78t71.5 91.5t48.5 74h-1026q-29 -18 -69 -60t-78 -87t-65.5 -82t-29.5 -45v-2h387l-194 -533h-246q-29 -18 -69 -60t-78 -87t-65.5 -82t-29.5 -45v-2z" />
<glyph unicode="J" horiz-adv-x="1173" d="M47 0h629h59q131 0 220 36t152.5 104.5t111 170t94.5 232.5l198 542h-389l-221 -608q-14 -29 -37.5 -63.5t-53.5 -65.5t-66.5 -51.5t-75.5 -20.5h-414q-66 -66 -115 -135t-92 -141z" />
<glyph unicode="K" horiz-adv-x="1429" d="M57 0h394l178 487l401 -487h438l-393 543l709 542h-438l-678 -487l178 487h-393z" />
<glyph unicode="L" horiz-adv-x="1146" d="M57 0l396 1085h391l-295 -809h649q2 0 -23.5 -34.5t-64.5 -80.5t-82 -92t-72 -69h-899z" />
<glyph unicode="M" horiz-adv-x="1712" d="M57 0h394l221 610l112 -610h142l557 610l-221 -610h393l395 1085h-496l-501 -544l-105 544h-495z" />
<glyph unicode="N" horiz-adv-x="1339" d="M57 0h394l221 610l114 -610h496l395 1085h-389l-223 -610l-117 610h-495z" />
<glyph unicode="O" horiz-adv-x="1476" d="M231 391q0 -115 40 -190.5t110 -119.5t166 -62.5t209 -18.5h205q121 0 234.5 47t204.5 127t152.5 186.5t79.5 227.5q12 70 13 131q0 197 -128 281.5t-376 84.5h-271q-109 0 -214 -49t-193 -130t-147.5 -187.5t-75.5 -220.5q-4 -29 -6.5 -55.5t-2.5 -51.5zM623 500v12 q0 12 2 14q2 16 10 38t18 46q18 35 50 71t69 64.5t75 46t71 17.5h165q51 0 83 -15.5t50.5 -41t24.5 -58t6 -65.5q0 -18 -1 -36t-3 -34q0 2 -4 -18l-8 -21q-4 -16 -23 -45q-18 -35 -55 -70.5t-78 -64.5t-79 -46.5t-58 -17.5h-135q-37 0 -70 20.5t-57.5 53.5t-38.5 73t-14 77z " />
<glyph unicode="P" horiz-adv-x="1382" d="M57 0h394l143 393h575q70 0 146 29t139.5 81t104 123.5t40.5 157.5q0 41 -9 93.5t-32.5 98.5t-63.5 77.5t-101 31.5h-940zM631 496l112 311h420q4 0 19.5 -17.5t21.5 -27.5l1 -4t3 -6l-4 -11q-2 -6 -9 -17t-15.5 -23.5t-15.5 -21.5t-9 -9h-328z" />
<glyph unicode="Q" horiz-adv-x="1462" d="M233 406q0 -121 47.5 -199t126 -124t183 -64.5t219.5 -18.5h184l35 -57h410l-101 194q113 92 191 213t96 238q4 29 7 55.5t3 50.5q0 96 -35.5 170t-100 123t-156 73.5t-201.5 24.5h-271q-109 0 -214 -48t-193 -129t-147.5 -187.5t-75.5 -222.5q-6 -49 -7 -92zM623 500v12 q0 12 2 14q2 16 10 38t18 46q18 35 50 71t69 64.5t75 46t71 17.5h141q55 0 91 -18.5t57.5 -48t29.5 -65.5t8 -73v-24q0 -16 -2 -21q0 2 -4 -18l-8 -21q-4 -16 -23 -45q-4 -10 -9 -18t-9 -17l-41 80h-430l110 -244h-26q-37 0 -70 20.5t-57.5 53.5t-38.5 73t-14 77z" />
<glyph unicode="R" horiz-adv-x="1419" d="M57 0h394l135 373l22 16l422 -389h438l-401 412q82 6 175 23.5t170 57t128 107.5t51 172q0 47 -9 102.5t-33.5 102.5t-68.5 77.5t-114 30.5h-913zM629 492l116 319h412q25 0 31 -11.5t6 -27.5v-22q0 -20 -13.5 -48t-43.5 -28h-328z" />
<glyph unicode="S" horiz-adv-x="1351" d="M80 0q10 20 42 65.5t67.5 91.5t66.5 81.5t37 35.5h696q31 0 36 18.5t5 39.5v12v12q0 16 -6 34t-23 18h-409q-61 0 -110.5 29.5t-85.5 75.5t-54 101.5t-18 108.5q0 49 28.5 111.5t73.5 119t102.5 94t114.5 37.5h1045q-47 -70 -107.5 -139t-134.5 -139h-676q-23 0 -39 -31 t-16 -49v-10q0 -2 8 -9.5t12 -11.5q8 -8 23.5 -15t17.5 -7h389q66 0 113 -32t76.5 -80t44 -103.5t14.5 -102.5v-12q0 -53 -24.5 -113.5t-64.5 -111.5t-92 -85t-108 -34h-1044z" />
<glyph unicode="T" horiz-adv-x="1261" d="M342 809h387l-295 -809h393l295 809h242q16 0 52 32.5t74 78t71.5 91.5t48.5 74h-1026q-29 -18 -69 -60t-78 -87t-65.5 -82t-29.5 -45v-2z" />
<glyph unicode="U" horiz-adv-x="1396" d="M221 301q0 23 3 47.5t7 52.5q10 53 26 106.5t34 123.5l162 454h387q-72 -209 -111 -324.5t-57.5 -173t-22.5 -72.5t-4 -21q-10 -41 -10 -66q0 -72 35 -112t92 -40h100q49 0 91 20.5t75 51.5t57.5 66t38.5 63l222 608h389l-185 -505q-51 -141 -104 -249t-121 -181.5 t-156 -111.5t-211 -38h-239q-143 0 -238.5 16.5t-153 52t-82 93t-24.5 139.5z" />
<glyph unicode="V" horiz-adv-x="1517" d="M432 1085l127 -878q6 -25 14.5 -60.5t20.5 -68.5t28.5 -55.5t39.5 -22.5h337q14 0 37 15.5t44.5 37t40 42t28.5 32.5l727 958h-422l-567 -731l-99 731h-356z" />
<glyph unicode="W" horiz-adv-x="1785" d="M432 186q0 -27 2 -59.5t7 -60t14.5 -47t23.5 -19.5h244q12 0 28.5 15.5t33 37t30.5 43t25 33.5l241 346q14 -125 23.5 -215t17.5 -147.5t17.5 -85t25.5 -27.5h242q10 0 27.5 15.5t35 37t33 43t23.5 33.5l618 956h-360l-316 -499l-34 499h-316l-348 -536v536h-338v-899z " />
<glyph unicode="X" horiz-adv-x="1347" d="M37 0h436l295 260l106 -260h437l-219 545l612 540h-438l-291 -256l-103 256h-438l219 -540z" />
<glyph unicode="Y" horiz-adv-x="1343" d="M432 1085l232 -569l-189 -516h393l189 516l645 569h-438l-291 -256l-103 256h-438z" />
<glyph unicode="Z" horiz-adv-x="1261" d="M47 0h1022q16 0 52 33t74 78t71.5 91t48.5 74h-551l846 809h-1026q-29 -18 -69 -60t-78 -87t-65.5 -82t-29.5 -45v-2h551z" />
<glyph unicode="[" horiz-adv-x="843" d="M16 -115h584q2 0 25.5 20.5t54.5 50.5t61.5 62.5t49.5 57.5q2 2 10 14t17 26.5t17.5 28t10.5 17.5h-338l285 784h184q16 0 52 33t74 78t71.5 91t48.5 75h-721z" />
<glyph unicode="\" horiz-adv-x="1345" d="M432 1085l440 -1085h437l-439 1085h-438z" />
<glyph unicode="]" horiz-adv-x="843" d="M23 -117h720l488 1338h-584q-2 0 -25.5 -20.5t-54 -50.5t-62.5 -62.5t-50 -57.5q-2 -2 -10.5 -14t-16.5 -26.5t-16.5 -28t-10.5 -17.5h338l-286 -784h-185q-18 0 -53 -33t-73 -78t-71.5 -92t-47.5 -74z" />
<glyph unicode="^" d="M41 0q4 16 4 14v6l737 943q6 12 24.5 32.5t40 40t43 34.5t36.5 15h344q20 0 37.5 -22.5t30 -55t21.5 -68.5l15 -60l135 -879h-364l-115 756l-553 -756h-436z" />
<glyph unicode="_" horiz-adv-x="946" d="M37 0h680l293 276h-680z" />
<glyph unicode="`" horiz-adv-x="348" d="M413 956.5q-3 12.5 3 26.5q20 51 76 86q43 16 57 16q23 0 33 -19t16 -42l16 -45q0 -20 5.5 -42t-5.5 -50q-8 -18 -18 -33.5t-27 -24.5l-12 -8q-4 -4 -22 -4q-29 0 -61 20.5t-42 47.5l-12 47q-4 12 -7 24.5z" />
<glyph unicode="a" d="M41 0h866q14 6 45 39t63 72t57.5 73.5t29.5 46.5l43 -231h364l-135 879q-6 25 -15 60.5t-21.5 68t-30 55t-37.5 22.5h-344q-14 0 -36 -15t-43.5 -34.5t-40 -40t-24.5 -32.5l-737 -943v-6q0 2 -4 -14zM686 274v21l344 461l72 -482h-416z" />
<glyph unicode="b" horiz-adv-x="1411" d="M57 0h940q109 0 181.5 15.5t124 47t85 83t64.5 122.5l8 23q10 27 20.5 55.5t10.5 56.5q-2 41 -20.5 75t-40.5 52q25 12 54 38t55 60t43 72.5t17 79.5v4q0 57 -9 112.5t-32.5 96.5t-63.5 66.5t-101 25.5h-940zM551 279l53 137h471q0 -14 -1 -28.5t-5 -20.5l-4 -11 q-2 -2 -10 -17l-8 -15q-6 -6 -18.5 -13.5t-25 -14.5t-22.5 -12l-10 -5h-420zM631 496l112 311h420q4 0 19.5 -17.5t21.5 -27.5l1 -4t3 -6l-4 -11q-2 -6 -9 -17t-15.5 -23.5t-15.5 -21.5t-9 -9h-328z" />
<glyph unicode="c" horiz-adv-x="1292" d="M260 498q0 -147 58.5 -243.5t154.5 -153t217 -79t248 -22.5h164q78 61 137 134t107 142h-490q-35 0 -73 25t-69.5 61.5t-52 80.5t-20.5 83q0 31 16 84q12 35 35 71t50.5 64.5t57 46t56.5 17.5h533q72 61 132 130t119 146h-845q-109 0 -205 -54t-170 -138t-117 -188.5 t-43 -202.5v-4z" />
<glyph unicode="d" horiz-adv-x="1347" d="M57 0l396 1085h890q123 0 178.5 -67.5t55.5 -171.5q0 -80 -33 -175.5t-96 -181.5q-88 -133 -177 -226t-192.5 -151.5t-227.5 -85t-284 -26.5h-510zM555 276h53q55 0 121 21.5t129.5 56.5t117.5 79t85 89q12 16 27.5 37t25.5 47q12 33 24.5 63.5t12.5 57.5 q0 35 -15.5 58.5t-54.5 23.5h-331z" />
<glyph unicode="e" horiz-adv-x="1280" d="M57 0h1030q2 0 26 20.5t54.5 50t62.5 62.5t50 57q2 2 10 14.5t16.5 27t16.5 27.5t10 17h-784l45 123h407l293 277h-473l-194 -189l116 322h631q16 0 52 32.5t74 78t72 91.5t48 74h-1167z" />
<glyph unicode="f" horiz-adv-x="1271" d="M57 0h392l145 399h407l293 277h-473l-194 -189l116 322h631q16 0 52 32.5t74 78t72 91.5t48 74h-1167z" />
<glyph unicode="g" horiz-adv-x="1310" d="M260 498q0 98 43 202.5t117 190.5t170 140t205 54h845q-59 -78 -119.5 -146.5t-131.5 -129.5h-533q-33 0 -63.5 -17.5t-56 -46t-46 -64.5t-33.5 -71q-16 -53 -16 -84q0 -39 19.5 -83t51 -80.5t69.5 -61.5t75 -25h121l47 134h-231v2q2 6 25.5 39.5t56 75.5t68.5 84t65 65 h491l-256 -676h-305q-127 0 -248 22.5t-217 79t-154.5 152.5t-58.5 244z" />
<glyph unicode="h" horiz-adv-x="1339" d="M57 0h394l141 389h442l-141 -389h389l395 1085h-389l-153 -419h-312l-209 -215l232 634h-393z" />
<glyph unicode="i" horiz-adv-x="516" d="M61 0h394l395 1085h-393z" />
<glyph unicode="j" horiz-adv-x="1173" d="M47 0h629h59q131 0 220 36t152.5 104.5t111 170t94.5 232.5l198 542h-389l-221 -608q-14 -29 -37.5 -63.5t-53.5 -65.5t-66.5 -51.5t-75.5 -20.5h-414q-66 -66 -115 -135t-92 -141z" />
<glyph unicode="k" horiz-adv-x="1429" d="M57 0h394l178 487l401 -487h438l-393 543l709 542h-438l-678 -487l178 487h-393z" />
<glyph unicode="l" horiz-adv-x="1146" d="M57 0l396 1085h391l-295 -809h649q2 0 -23.5 -34.5t-64.5 -80.5t-82 -92t-72 -69h-899z" />
<glyph unicode="m" horiz-adv-x="1712" d="M57 0h394l221 610l112 -610h142l557 610l-221 -610h393l395 1085h-496l-501 -544l-105 544h-495z" />
<glyph unicode="n" horiz-adv-x="1339" d="M57 0h394l221 610l114 -610h496l395 1085h-389l-223 -610l-117 610h-495z" />
<glyph unicode="o" horiz-adv-x="1511" d="M231 391q0 -115 40 -190.5t110 -119.5t166 -62.5t209 -18.5h239q123 0 237 49t204 130t151.5 187.5t79.5 221.5q6 33 8 61.5t2 57.5q0 100 -34.5 172.5t-100 117.5t-158 66.5t-208.5 21.5h-306q-109 0 -215 -50t-194 -133t-147.5 -188.5t-73.5 -215.5q-4 -29 -6.5 -55.5 t-2.5 -51.5zM623 500v12q0 12 2 14q2 16 10 38t18 46q18 35 50 71t69 64.5t75 46t71 17.5h200q51 0 83 -15.5t50.5 -41t24.5 -58t6 -65.5q0 -18 -1 -36t-3 -34q0 2 -4 -18l-8 -21q-4 -16 -23 -45q-18 -35 -56 -70.5t-80 -64.5t-79 -46.5t-55 -17.5h-170q-37 0 -70 20.5 t-57.5 53.5t-38.5 73t-14 77z" />
<glyph unicode="p" horiz-adv-x="1382" d="M57 0h394l143 393h575q70 0 146 29t139.5 81t104 123.5t40.5 157.5q0 41 -11 93.5t-35.5 98.5t-63.5 77.5t-96 31.5h-940zM631 496l112 311h420q4 0 19.5 -17.5t21.5 -27.5l1 -4t3 -6l-4 -11q-2 -6 -9 -17t-15.5 -23.5t-15.5 -21.5t-9 -9h-328z" />
<glyph unicode="q" horiz-adv-x="1456" d="M233 406q0 -121 47.5 -199t126 -124t183 -64.5t219.5 -18.5h184l35 -57h410l-101 194q113 92 191 213t96 238q4 29 7 55.5t3 50.5q0 96 -35.5 170t-100 123t-156 73.5t-201.5 24.5h-271q-109 0 -214 -50t-193 -132t-147.5 -188.5t-75.5 -216.5q-6 -49 -7 -92zM623 500v12 q0 12 2 14q2 16 10 38t18 46q18 35 50 71t69 64.5t75 46t71 17.5h141q55 0 91 -18.5t57.5 -48t29.5 -65.5t8 -73v-24q0 -16 -2 -21q0 2 -4 -18l-8 -21q-4 -16 -23 -45q-4 -10 -9 -18t-9 -17l-41 80h-430l110 -244h-26q-37 0 -70 20.5t-57.5 53.5t-38.5 73t-14 77z" />
<glyph unicode="r" horiz-adv-x="1431" d="M57 0h394l135 373l22 16l422 -389h438l-401 412q82 6 175 23.5t170 57t128 107.5t51 172q0 47 -7 102.5t-30.5 102.5t-68.5 77.5t-119 30.5h-913zM629 492l116 319h412q25 0 31 -11.5t6 -27.5v-22q0 -20 -13.5 -48t-43.5 -28h-328z" />
<glyph unicode="s" horiz-adv-x="1351" d="M80 0q10 20 42 65.5t67.5 91.5t66.5 81.5t37 35.5h696q31 0 36 18.5t5 39.5v12v12q0 16 -6 34t-23 18h-409q-61 0 -110.5 29.5t-85.5 75.5t-54 101.5t-18 108.5q0 49 28.5 111.5t73.5 119t102.5 94t114.5 37.5h1045q-47 -70 -107.5 -139t-134.5 -139h-676q-23 0 -39 -31 t-16 -49v-10q0 -2 8 -9.5t12 -11.5q8 -8 23.5 -15t17.5 -7h389q68 0 115 -32t76.5 -80t43 -103.5t13.5 -102.5v-12q0 -53 -24.5 -113.5t-64.5 -111.5t-92 -85t-108 -34h-1044z" />
<glyph unicode="t" horiz-adv-x="1261" d="M342 809h387l-295 -809h393l295 809h242q16 0 52 32.5t74 78t71.5 91.5t48.5 74h-1026q-29 -18 -69 -60t-78 -87t-65.5 -82t-29.5 -45v-2z" />
<glyph unicode="u" horiz-adv-x="1396" d="M217 307q0 23 2 45.5t6 50.5q10 53 29 105.5t37 122.5l162 454h387q-72 -209 -111 -324.5t-57.5 -173t-22.5 -72.5t-4 -21q-10 -41 -10 -66q0 -72 40 -112t87 -40h100q49 0 91 20.5t75 51.5t57.5 66t38.5 63l222 608h389l-185 -505q-51 -141 -104 -249t-121 -181.5 t-156 -111.5t-211 -38h-239q-145 0 -241.5 17.5t-154 54.5t-82 95t-24.5 140z" />
<glyph unicode="v" horiz-adv-x="1517" d="M432 1085l127 -878q6 -25 14.5 -60.5t20.5 -68.5t28.5 -55.5t39.5 -22.5h337q14 0 37 15.5t44.5 37t40 42t28.5 32.5l727 958h-422l-567 -731l-99 731h-356z" />
<glyph unicode="w" horiz-adv-x="1785" d="M180 272q0 -55 22.5 -104t75 -86t139.5 -59.5t216 -22.5h1096l395 1085h-389l-295 -811h-248l295 811h-389l-291 -800q-31 8 -62.5 10t-57 13t-41 36t-15.5 80q0 6 4 22.5t8 36t9 39t7 29.5l181 534h-385l-248 -677q-12 -35 -19.5 -68t-7.5 -68z" />
<glyph unicode="x" horiz-adv-x="1347" d="M37 0h436l295 260l106 -260h437l-219 545l612 540h-438l-291 -256l-103 256h-438l219 -540z" />
<glyph unicode="y" horiz-adv-x="1343" d="M432 1085l232 -569l-189 -516h393l189 516l645 569h-438l-291 -256l-103 256h-438z" />
<glyph unicode="z" horiz-adv-x="1261" d="M47 0h1022q16 0 52 33t74 78t71.5 91t48.5 74h-551l846 809h-1026q-29 -18 -69 -60t-78 -87t-65.5 -82t-29.5 -45v-2h551z" />
<glyph unicode="{" horiz-adv-x="1136" d="M182 399l293 277h121l199 547h721q-14 -29 -48 -75t-72 -91t-74 -78t-52 -33h-185l-284 -784h338q-2 -4 -10.5 -17.5t-17.5 -28t-17.5 -26.5t-10.5 -14q-18 -25 -48.5 -57.5t-61.5 -62.5t-54.5 -50.5t-25.5 -20.5h-584l187 514h-314z" />
<glyph unicode="|" horiz-adv-x="507" d="M-47 -289h393l602 1659h-393z" />
<glyph unicode="}" horiz-adv-x="1136" d="M23 -117q14 27 47.5 74t71.5 92t73 78t53 33h185l286 784h-338q2 4 10.5 17.5t16.5 28t16.5 26.5t10.5 14q18 25 50 57.5t62.5 62.5t54 50.5t25.5 20.5h584l-187 -514h314l-295 -277h-121l-199 -547h-720z" />
<glyph unicode="~" horiz-adv-x="845" d="M184 399l240 248q10 8 25.5 18.5t25.5 10.5h180l66 -139l131 139h201l-3 -5t-26 -27.5t-72 -73t-139 -142.5q-10 -8 -25.5 -18.5t-25.5 -10.5h-178l-68 140l-131 -140h-201z" />
<glyph horiz-adv-x="358" />
<glyph unicode="&#xa1;" horiz-adv-x="507" d="M57 0h394l268 735h-393zM444.5 942q-22.5 -59 8 -102t96.5 -43q33 0 65.5 11t60 31.5t49.5 46t32 56.5q23 59 -7 101t-96 42t-126 -42t-82.5 -101z" />
<glyph unicode="&#xa2;" horiz-adv-x="1292" d="M260 498q0 -106 31 -186.5t85 -136.5t128 -92t160 -54l-117 -320h258l106 291h191q78 61 137 134t107 142h-334l194 533h183q72 61 132 130t119 146h-333l102 283h-258l-102 -283h-254q-109 0 -205 -54t-170 -138t-117 -188.5t-43 -202.5v-4zM641 522v4q0 31 16 84 q12 35 33 71t46.5 64.5t56 46t63.5 17.5h92l-182 -498q-49 39 -87 97.5t-38 113.5z" />
<glyph unicode="&#xa3;" horiz-adv-x="1380" d="M37 0h1306q6 76 7 147q0 80 -15 132h-401q-4 0 -18.5 17t-20.5 28l-1 4t-3 6l4 10q4 6 12 20.5t19 28.5h403l-115 277h-178q-4 0 -4 8q0 16 2 34.5t6 28.5l4 11l6 6l3 4q8 6 19 13t22.5 14.5t20.5 12.5t11 5h121q10 72 11.5 142.5t-13.5 135.5h-143q-53 0 -114.5 -31.5 t-121 -77.5t-110.5 -98.5t-82 -93.5q-16 -23 -27.5 -45t-21.5 -45q-4 -10 -6.5 -18t-4.5 -17h-145l-293 -276h318q-10 -16 -15.5 -30.5t-9.5 -28.5l-18 -48h-121z" />
<glyph unicode="&#xa4;" horiz-adv-x="1347" d="M37 0h436l254 223h41h16l90 -223h437l-133 328q66 51 106.5 116.5t50.5 126.5q8 53 1 94.5t-25 73.5l393 346h-438l-248 -219h-23h-34l-89 219h-438l131 -321q-63 -53 -105 -118.5t-48 -127.5q-8 -53 -1 -94t25 -72l-2 -2zM666 535q0 10 6 22t12 27q27 43 76 80.5 t94 37.5h111q43 0 66.5 -14t34.5 -35.5t12 -48t-1 -49.5q0 -8 -8 -25q-4 -14 -12 -26q-12 -20 -35 -41t-48.5 -38t-50 -27.5t-40.5 -10.5h-90q-29 0 -52.5 14.5t-41 36t-26.5 48t-7 49.5z" />
<glyph unicode="&#xa5;" horiz-adv-x="1343" d="M195 129l256 164h131l22 61h-328l256 164h130l-230 567h438l103 -256l291 256h438l-643 -567h323l-256 -164h-129l-22 -61h325l-256 -164h-129l-47 -129h-393l47 129h-327z" />
<glyph unicode="&#xa6;" horiz-adv-x="507" d="M-47 -289h393l602 1659h-393z" />
<glyph unicode="&#xa7;" horiz-adv-x="1347" d="M37 0h436l254 223h57q125 0 220.5 31t173.5 74q53 41 89 89t52 97q6 14 9 28.5t7 28.5q8 53 1 94.5t-25 73.5l393 346h-438l-248 -219h-57q-106 0 -205 -20.5t-191 -81.5q-49 -41 -86 -90t-55 -99q-4 -16 -8 -29.5t-4 -27.5q-8 -53 -1 -94t25 -72zM666 535q0 2 4 14 l14 35q27 43 76 80.5t94 37.5h111q43 0 66.5 -14t34.5 -35.5t12 -48t-1 -49.5q0 -8 -8 -25q-4 -14 -12 -26q-12 -20 -35 -41t-48.5 -38t-50 -27.5t-40.5 -10.5h-90q-29 0 -52.5 14.5t-41 36t-26.5 48t-7 49.5z" />
<glyph unicode="&#xa8;" horiz-adv-x="745" d="M408 965q18 51 68 85.5t106 34.5q55 0 79.5 -34.5t6 -86t-68.5 -86t-105 -34.5t-79.5 35t-6.5 86zM778.5 964.5q18.5 51.5 69.5 86t106 34.5t78.5 -34.5t5.5 -85.5t-67 -86t-105 -35q-55 0 -80.5 34.5t-7 86z" />
<glyph unicode="&#xa9;" horiz-adv-x="569" d="M408 879q6 -29 19 -49.5t34 -36.5q47 -29 102 -29q27 0 123 29q35 16 62.5 36.5t52.5 49.5q51 51 71 110q23 68 11 115q-10 53 -56 84q-47 29 -100 29q-51 0 -121 -29q-70 -31 -117 -84q-25 -29 -43 -56.5t-28 -58.5q-23 -59 -10 -110zM446 897q-6 43 11 92 q10 25 23.5 49.5t35.5 46.5q43 47 97.5 71t101.5 24q51 0 82 -25q41 -29 47 -70q6 -47 -10 -96q-20 -51 -60 -92q-45 -49 -94 -70q-55 -25 -102 -24q-49 0 -86 24q-37 31 -46 70zM524 894q21 -34 74 -34q41 0 79 22.5t62 61.5l-32 10q-37 -57 -99 -57q-76 0 -41 92 q16 47 47 71.5t68 24.5q45 0 51 -47l37 9q4 72 -76 71q-55 0 -100 -32.5t-68 -96.5q-23 -61 -2 -95z" />
<glyph unicode="&#xab;" horiz-adv-x="630" d="M229 473l47 127q6 16 31 36.5t41 33.5l252 166l-59 -168l-162 -111l94 -76l-70 -186l-161 141q-4 6 -10.5 16.5t-2.5 20.5zM506 475l47 127q6 16 30.5 36.5t41.5 33.5l254 166l-62 -168l-162 -111l95 -76l-68 -186l-164 141q-4 6 -10 16.5t-2 20.5z" />
<glyph unicode="&#xac;" horiz-adv-x="968" d="M182 399l293 277h682l-172 -475h-276l71 198h-598z" />
<glyph unicode="&#xad;" horiz-adv-x="651" d="M182 399h385l293 277h-385z" />
<glyph unicode="&#xae;" horiz-adv-x="569" d="M410 881q6 -29 18 -49.5t33 -36.5q47 -29 102 -29q27 0 123 29q35 16 63.5 36.5t53.5 49.5q47 53 69 110q23 61 12.5 114.5t-57.5 84.5q-41 29 -98 29q-49 0 -123 -29q-68 -31 -114 -84q-25 -29 -44.5 -56.5t-29.5 -58.5q-20 -57 -8 -110zM449 899q-8 37 8 92 q18 49 59 96q45 47 98.5 71t100.5 24q49 0 84 -25q39 -27 45 -70q8 -41 -10 -96q-14 -43 -58 -92q-49 -49 -96 -70q-55 -25 -102 -24q-49 0 -86 24q-37 31 -43 70zM502 868h39l39 103h22q20 0 27 -8q14 -10 22 -58l6 -37h50l-13 47q-8 27 -13 40.5t-22 21.5q33 2 58.5 21.5 t36.5 45.5q6 20 0 37q0 14 -21 23q-8 8 -59 8h-82zM590 1004l26 73h43q39 0 41 -2q18 -8 11 -35q-6 -16 -22.5 -26t-51.5 -10h-47z" />
<glyph unicode="&#xaf;" horiz-adv-x="946" d="M332 809h680l293 276h-680z" />
<glyph unicode="&#xb0;" horiz-adv-x="374" d="M408 965q18 51 68 85.5t106 34.5q55 0 79.5 -34.5t6 -86t-68.5 -86t-105 -34.5t-79.5 35t-6.5 86z" />
<glyph unicode="&#xb1;" horiz-adv-x="944" d="M35 0l293 276h678l-293 -276h-678zM229 535l293 276h111l78 211h276l-78 -211h291l-293 -276h-98l-72 -199h-276l71 199h-303z" />
<glyph unicode="&#xb4;" horiz-adv-x="348" d="M372 853.5q-1 -15.5 9 -24.5l8 -8q4 -4 19 -4q14 0 34.5 6t42 15.5t41 21.5t33.5 25l49 47q12 12 23.5 24.5t17.5 26.5q20 51 -14 86q-23 16 -45 16q-23 0 -47 -19t-47 -42l-50 -45q-16 -20 -35.5 -42t-29.5 -50q-8 -18 -9 -33.5z" />
<glyph unicode="&#xb5;" horiz-adv-x="1714" d="M258 553l148 -113l-146 -63l242 -68l-117 -71l305 -15l-65 -88l299 64l16 -52l-29 -49l269 125l71 -76l166 154l125 -53l76 178l135 -29l8 17q12 35 -37 151l148 13l-2 24l-141 105l124 34h13l-4 27l-230 63l115 76h-299l55 88l-307 -49l18 76l-16 12l-246 -114l-57 75 l-172 -147q-14 -8 -33 -8q-35 0 -90 55l-84 -178l-139 14l-8 -53l37 -113zM457 434l104 228l37 8l-90 -219zM565 516q-2 2 4 16l4 13q37 106 191 131l-25 -55q-10 6 -18 6q-25 0 -64 -33q-45 -43 -61 -90q-18 -43 25 -43q10 0 19 1t19 3l-10 -37q-41 -10 -45 -10 q-57 0 -39 98zM705 471q51 150 145 197h8h12q62 0 56 -74q-82 -156 -135 -156q-10 -2 -18.5 -3t-14.5 -1q-57 0 -53 37zM762 530q-18 -53 14 -53q14 0 58 19q30 38 40 67q6 20 3 25q0 31 -25 30q-33 0 -84 -73zM891 434l78 225l61 -143l62 154l30 -11l-80 -221 q-49 0 -79 107l-39 -105zM1081 444l101 226l43 10l-90 -219zM1163 457q29 57 69 112.5t93 108.5q8 6 31 6q37 0 24 -70l-59 -168l-21 11q-4 53 -26 53q-27 0 -70 -53h-41zM1264 557h61l4 76zM1356 444l80 224l57 -144l66 156l28 -12l-82 -222q-45 0 -78 111l-41 -111z M1528 426l31 20l26 -12l-43 -37zM1575 510l70 170l45 -12l-84 -164z" />
<glyph unicode="&#xb6;" horiz-adv-x="1261" d="M215 434l104 228l37 8l-90 -219zM324 516q-2 2 4 16l4 13q36 106 190 131l-24 -55q-10 6 -19 6q-25 0 -63 -33q-45 -43 -62 -90q-18 -43 25 -43q10 0 19.5 1t19.5 3l-10 -37q-41 -10 -46 -10q-57 0 -38 98zM463 471q51 150 145 197h8h13q61 0 55 -74q-82 -156 -135 -156 q-10 -2 -18.5 -3t-14.5 -1q-57 0 -53 37zM520 530q-18 -53 15 -53q14 0 57 19q31 38 41 67q6 20 2 25q0 31 -25 30q-33 0 -84 -73zM649 434l78 225l61 -143l62 154l31 -11l-80 -221q-49 0 -80 107l-39 -105zM840 444l100 226l43 10l-90 -219zM922 457q29 57 68.5 112.5 t92.5 108.5q8 6 31 6q37 0 25 -70l-60 -168l-20 11q-4 53 -27 53q-27 0 -69 -53h-41zM1022 557h61l4 76zM1114 444l80 224l57 -144l66 156l29 -12l-82 -222q-45 0 -78 111l-41 -111zM1286 426l31 20l26 -12l-43 -37zM1333 510l70 170l45 -12l-84 -164z" />
<glyph unicode="&#xb7;" horiz-adv-x="374" d="M260 537q0 27 8 41q18 51 67.5 85.5t104.5 34.5q45 0 71 -23.5t26 -58.5q0 -23 -9 -38q-18 -51 -69 -86t-107 -35q-43 0 -67.5 22.5t-24.5 57.5z" />
<glyph unicode="&#xb8;" horiz-adv-x="360" d="M-317 -238l249 189h109l22 61h244l-90 -250h-534z" />
<glyph unicode="&#xbb;" horiz-adv-x="630" d="M164 293l61 168l162 110l-94 76l67 187l164 -142q4 -6 9.5 -16t1.5 -21l-46 -127q-6 -16 -30.5 -36.5t-40.5 -32.5zM440 295l62 168l162 110l-95 76l68 187l164 -142q4 -6 10 -16t2 -21l-47 -127q-6 -16 -30.5 -36.5t-41.5 -32.5z" />
<glyph unicode="&#xbf;" horiz-adv-x="1339" d="M125 156q0 -66 28.5 -111t94.5 -45h905q27 27 59.5 60.5t65.5 70.5t63.5 75t51.5 73h-815q-18 0 -19 22q0 14 6 30.5t17 26.5l8 11q0 2 12 9t21 11q14 8 38.5 19.5t26.5 11.5h285q53 0 122.5 31.5t137 80t126 103.5t91.5 102h-317v-2q-4 -6 -36 -27.5t-96 -21.5h-305 q-61 0 -132.5 -30.5t-141.5 -79t-131.5 -105.5t-97.5 -109q-33 -45 -50.5 -99t-17.5 -107zM1225 895q0 -43 29.5 -70.5t82.5 -27.5q33 0 66 11t60.5 31.5t49 46t31.5 56.5q10 35 10 49q0 41 -29.5 67.5t-82.5 26.5q-66 0 -126.5 -42t-82.5 -101q-8 -16 -8 -47z" />
<glyph unicode="&#xc0;" d="M41 0q4 16 4 14v6l737 943q6 12 24.5 32.5t40 40t43 34.5t36.5 15h344q20 0 37.5 -22.5t30 -55t21.5 -68.5l15 -60l135 -879h-364l-43 231q-4 -12 -29.5 -46.5t-57.5 -73.5t-62.5 -72t-45.5 -39h-866zM686 274h416l-72 482l-344 -461v-21zM1029 1339.5q-3 12.5 3 26.5 q20 51 76 86q43 16 57 16q23 0 34 -19t15 -42l17 -45q0 -20 5 -42t-5 -50q-8 -18 -18.5 -33.5t-26.5 -24.5l-12 -8q-4 -4 -23 -4q-29 0 -60.5 20.5t-41.5 47.5l-13 47q-4 12 -7 24.5z" />
<glyph unicode="&#xc1;" d="M41 0q4 16 4 14v6l737 943q6 12 24.5 32.5t40 40t43 34.5t36.5 15h344q20 0 37.5 -22.5t30 -55t21.5 -68.5l15 -60l135 -879h-364l-43 231q-4 -12 -29.5 -46.5t-57.5 -73.5t-62.5 -72t-45.5 -39h-866zM686 274h416l-72 482l-344 -461v-21zM1023 1237.5q1 15.5 7 34.5 q10 29 31 50.5t35 41.5l49 45q23 23 47.5 42t46.5 19q23 0 45 -16q35 -35 14 -86q-4 -14 -16 -26.5t-25 -24.5l-47 -47q-29 -27 -76 -47.5t-75 -20.5q-16 0 -21 4l-6 8q-10 8 -9 23.5z" />
<glyph unicode="&#xc2;" d="M41 0q4 16 4 14v6l737 943q6 12 24.5 32.5t40 40t43 34.5t36.5 15h344q20 0 37.5 -22.5t30 -55t21.5 -68.5l15 -60l135 -879h-364l-43 231q-4 -12 -29.5 -46.5t-57.5 -73.5t-62.5 -72t-45.5 -39h-866zM686 274h416l-72 482l-344 -461v-21zM858 1214l219 216q10 6 21.5 15 t21.5 9h127q16 0 31.5 -17.5t24.5 -29.5l96 -193h-168l-70 121l-117 -121q-188 -2 -186 0z" />
<glyph unicode="&#xc3;" d="M41 0q4 16 4 14v6l737 943q6 12 24.5 32.5t40 40t43 34.5t36.5 15h344q20 0 37.5 -22.5t30 -55t21.5 -68.5l15 -60l135 -879h-364l-43 231q-4 -12 -29.5 -46.5t-57.5 -73.5t-62.5 -72t-45.5 -39h-866zM686 274h416l-72 482l-344 -461v-21zM797 1214l219 216q10 6 22.5 15 t22.5 9h168l67 -121l119 121h187l-4 -4q-3 -4 -23.5 -24.5t-65.5 -63.5t-127 -123q-8 -6 -21 -15.5t-24 -9.5h-168l-67 121l-119 -121h-186z" />
<glyph unicode="&#xc4;" d="M41 0q4 16 4 14v6l737 943q6 12 24.5 32.5t40 40t43 34.5t36.5 15h344q20 0 37.5 -22.5t30 -55t21.5 -68.5l15 -60l135 -879h-364l-43 231q-4 -12 -29.5 -46.5t-57.5 -73.5t-62.5 -72t-45.5 -39h-866zM686 274h416l-72 482l-344 -461v-21zM858 1337q18 51 67.5 86 t104.5 35t81 -34.5t7.5 -86t-70 -86t-106.5 -34.5t-78.5 34.5t-5.5 85.5zM1228.5 1337.5q18.5 51.5 69 86t105.5 34.5t79.5 -35t6.5 -86t-68.5 -85.5t-105.5 -34.5t-80 34.5t-6.5 86z" />
<glyph unicode="&#xc5;" d="M41 0q4 16 4 14v6l737 943q6 12 24.5 32.5t40 40t43 34.5t36.5 15h344q20 0 37.5 -22.5t30 -55t21.5 -68.5l15 -60l135 -879h-364l-43 231q-4 -12 -29.5 -46.5t-57.5 -73.5t-62.5 -72t-45.5 -39h-866zM686 274h416l-72 482l-344 -461v-21zM1047 1337q18 51 67 86t105 35 q55 0 80.5 -34.5t7 -86t-69.5 -86t-107 -34.5q-55 0 -78 34.5t-5 85.5z" />
<glyph unicode="&#xc6;" horiz-adv-x="2381" d="M41 0q4 16 4 14v6l737 943q6 12 24.5 32.5t40 40t43 34.5t36.5 15h344q18 0 36.5 -22.5t33 -55t23.5 -67.5t11 -61l29 -183l141 389h1168q-14 -29 -48 -74.5t-72 -91t-74 -78t-52 -32.5h-631l-117 -322l195 189h473l-293 -277h-407l-46 -123h785q-2 -4 -10.5 -17 t-16.5 -27.5t-16 -26.5l-10 -15q-18 -25 -50 -57.5t-63 -62t-54.5 -50t-25.5 -20.5h-1034l-43 231q-4 -12 -29.5 -46.5t-57.5 -73.5t-62.5 -72t-45.5 -39h-866zM686 274h416l-72 482l-344 -461v-21z" />
<glyph unicode="&#xc7;" horiz-adv-x="1292" d="M221 -238h535l86 240q8 -2 24 -2h23h49h164q78 61 137 134t107 142h-490q-35 0 -73 25t-69.5 61.5t-52 80.5t-20.5 83q0 31 16 84q12 35 33 71t46.5 64.5t56 46t63.5 17.5h533q72 61 132 130t119 146h-845q-109 0 -205 -54t-170 -140t-117 -190.5t-43 -202.5t26.5 -174 t74 -131.5t112 -92.5t139.5 -59l-32 -90h-109z" />
<glyph unicode="&#xc8;" horiz-adv-x="1280" d="M57 0l396 1085h1167q-14 -29 -48 -74.5t-72 -91t-73.5 -78t-52.5 -32.5h-631l-116 -322l194 189h473l-293 -277h-407l-45 -123h784q-2 -4 -10 -17t-16.5 -27.5t-16.5 -26.5l-10 -15q-18 -25 -50 -57.5t-62.5 -62t-54 -50t-26.5 -20.5h-1030zM940 1349.5q-2 12.5 4 26.5 q16 53 76 86q43 16 57 17q23 0 33 -19.5t16 -42.5l17 -45q0 -20 4 -41.5t-6 -50.5q-6 -18 -16.5 -33.5t-26.5 -23.5l-13 -9q-16 -4 -22 -4q-29 0 -60.5 20.5t-41.5 47.5l-15 47q-4 12 -6 24.5z" />
<glyph unicode="&#xc9;" horiz-adv-x="1280" d="M57 0l396 1085h1167q-14 -29 -48 -74.5t-72 -91t-73.5 -78t-52.5 -32.5h-631l-116 -322l194 189h473l-293 -277h-407l-45 -123h784q-2 -4 -10 -17t-16.5 -27.5t-16.5 -26.5l-10 -15q-18 -25 -50 -57.5t-62.5 -62t-54 -50t-26.5 -20.5h-1030zM936 1247q0 20 8 35 q10 29 30 50.5t36 41.5l49 45q23 23 47 42.5t47 19.5t45 -17q35 -35 14 -86q-4 -14 -16 -26.5t-25 -24.5l-49 -47q-14 -12 -33.5 -24.5t-41 -21.5t-42 -15.5t-34.5 -6.5t-19 5l-6 8q-10 10 -10 22z" />
<glyph unicode="&#xca;" horiz-adv-x="1280" d="M57 0l396 1085h1167q-14 -29 -48 -74.5t-72 -91t-73.5 -78t-52.5 -32.5h-631l-116 -322l194 189h473l-293 -277h-407l-45 -123h784q-2 -4 -10 -17t-16.5 -27.5t-16.5 -26.5l-10 -15q-18 -25 -50 -57.5t-62.5 -62t-54 -50t-26.5 -20.5h-1030zM774 1221l219 215 q10 6 23.5 15t23.5 9h127q16 0 29.5 -17.5t22.5 -29.5l96 -192h-168l-66 120l-120 -120h-187z" />
<glyph unicode="&#xcb;" horiz-adv-x="1280" d="M57 0l396 1085h1167q-14 -29 -48 -74.5t-72 -91t-73.5 -78t-52.5 -32.5h-631l-116 -322l194 189h473l-293 -277h-407l-45 -123h784q-2 -4 -10 -17t-16.5 -27.5t-16.5 -26.5l-10 -15q-18 -25 -50 -57.5t-62.5 -62t-54 -50t-26.5 -20.5h-1030zM801 1337q18 51 67.5 86 t104.5 35t80.5 -34.5t7 -86t-69.5 -86t-106 -34.5t-78.5 34.5t-5.5 85.5zM1171.5 1337.5q18.5 51.5 68.5 86t106 34.5q55 0 79.5 -35t6.5 -86t-68.5 -85.5t-106.5 -34.5q-55 0 -79.5 34.5t-6 86z" />
<glyph unicode="&#xcc;" horiz-adv-x="507" d="M57 0l396 1085h393l-395 -1085h-394zM602 1341.5q-2 12.5 2 26.5q20 51 76 86q43 16 57 16q23 0 34 -19t15 -42l17 -45q2 -20 6 -42t-6 -50q-6 -18 -16.5 -33.5t-26.5 -24.5l-15 -8q-4 -4 -20 -4q-29 0 -61.5 20.5t-40.5 47.5l-15 47q-4 12 -6 24.5z" />
<glyph unicode="&#xcd;" horiz-adv-x="507" d="M57 0l396 1085h393l-395 -1085h-394zM590 1241q0 20 8 35q10 29 30 50.5t36 41.5l49 45q23 23 47 42.5t47 19.5t45 -17q35 -35 14 -86q-4 -14 -16 -26.5t-25 -24.5l-49 -47q-14 -12 -33.5 -24.5t-41 -21.5t-42 -15.5t-34.5 -6.5t-19 4l-6 9q-10 10 -10 22z" />
<glyph unicode="&#xce;" horiz-adv-x="507" d="M57 0l396 1085h393l-395 -1085h-394zM428 1219l219 215q8 6 21.5 15t23.5 9h127q16 0 30.5 -17.5t22.5 -29.5l97 -192h-168l-68 120l-119 -120h-186z" />
<glyph unicode="&#xcf;" horiz-adv-x="507" d="M57 0l396 1085h393l-395 -1085h-394zM430 1337q18 51 67.5 86t104.5 35t81 -34.5t7.5 -86t-70 -86t-106.5 -34.5t-78.5 34.5t-5.5 85.5zM800.5 1337.5q18.5 51.5 69 86t105.5 34.5t79.5 -35t6.5 -86t-68.5 -85.5t-105.5 -34.5t-80 34.5t-6.5 86z" />
<glyph unicode="&#xd0;" horiz-adv-x="1583" d="M182 399l293 277h53l150 409h891q104 0 161.5 -55t69.5 -140t-20.5 -189.5t-106.5 -202.5q-98 -133 -195.5 -228.5t-202 -155t-223 -87t-259.5 -27.5h-510l145 399h-246zM780 276h62q45 0 111.5 25t134 61.5t125 80.5t85.5 83q12 16 27.5 37t26.5 47q25 63 24 117 q0 35 -15 58.5t-54 23.5h-332l-49 -133h248l-293 -277h-56z" />
<glyph unicode="&#xd1;" horiz-adv-x="1339" d="M57 0l396 1085h495l117 -610l223 610h389l-395 -1085h-496l-114 610l-221 -610h-394zM713 1214l219 216q10 6 22.5 15t22.5 9h168l67 -121l119 121h187l-4 -4q-3 -4 -23.5 -24.5t-65.5 -63.5t-127 -123q-8 -6 -21 -15.5t-24 -9.5h-168l-67 121l-119 -121h-186z" />
<glyph unicode="&#xd2;" horiz-adv-x="1476" d="M238 498q14 98 74.5 202.5t148.5 190.5t194.5 140t214.5 54h271q125 0 226 -27.5t166.5 -87t93.5 -153.5t5 -229q-14 -98 -75.5 -202.5t-152.5 -190.5t-206 -140.5t-237 -54.5h-205q-125 0 -229.5 22.5t-175 79t-102.5 152.5t-11 244zM625 526q-6 -39 6 -83t36.5 -80.5 t59.5 -61.5t76 -25h135q25 0 62.5 17.5t77.5 46.5t76 64.5t54 70.5q18 29 23 45l8 21q4 20 4 18q2 20 3 39.5t1 42.5q0 33 -8 62.5t-26.5 53t-50.5 38t-79 14.5h-165q-33 0 -71 -17.5t-75 -46t-68.5 -64.5t-50.5 -71q-10 -25 -18 -46.5t-10 -37.5zM1087.5 1345.5 q-2.5 12.5 2.5 26.5q20 51 75 86q43 16 58 17q23 0 34 -19.5t15 -42.5l16 -45q0 -20 5 -41.5t-5 -50.5q-8 -18 -18 -33.5t-25 -23.5l-14 -9q-4 -4 -23 -4q-29 0 -60.5 20.5t-41.5 47.5l-12 47q-4 12 -6.5 24.5z" />
<glyph unicode="&#xd3;" horiz-adv-x="1476" d="M238 498q14 98 74.5 202.5t148.5 190.5t194.5 140t214.5 54h271q125 0 226 -27.5t166.5 -87t93.5 -153.5t5 -229q-14 -98 -75.5 -202.5t-152.5 -190.5t-206 -140.5t-237 -54.5h-205q-125 0 -229.5 22.5t-175 79t-102.5 152.5t-11 244zM625 526q-6 -39 6 -83t36.5 -80.5 t59.5 -61.5t76 -25h135q25 0 62.5 17.5t77.5 46.5t76 64.5t54 70.5q18 29 23 45l8 21q4 20 4 18q2 20 3 39.5t1 42.5q0 33 -8 62.5t-26.5 53t-50.5 38t-79 14.5h-165q-33 0 -71 -17.5t-75 -46t-68.5 -64.5t-50.5 -71q-10 -25 -18 -46.5t-10 -37.5zM1067 1241q0 20 8 35 q10 29 30 50.5t36 41.5l49 45q23 23 47.5 42.5t46.5 19.5q23 0 45 -17q35 -35 14 -86q-4 -14 -16 -26.5t-24 -24.5l-50 -47q-14 -12 -33.5 -24.5t-41 -21.5t-42 -15.5t-34.5 -6.5t-19 4l-6 9q-10 10 -10 22z" />
<glyph unicode="&#xd4;" horiz-adv-x="1476" d="M238 498q14 98 74.5 202.5t148.5 190.5t194.5 140t214.5 54h271q125 0 226 -27.5t166.5 -87t93.5 -153.5t5 -229q-14 -98 -75.5 -202.5t-152.5 -190.5t-206 -140.5t-237 -54.5h-205q-125 0 -229.5 22.5t-175 79t-102.5 152.5t-11 244zM625 526q-6 -39 6 -83t36.5 -80.5 t59.5 -61.5t76 -25h135q25 0 62.5 17.5t77.5 46.5t76 64.5t54 70.5q18 29 23 45l8 21q4 20 4 18q2 20 3 39.5t1 42.5q0 33 -8 62.5t-26.5 53t-50.5 38t-79 14.5h-165q-33 0 -71 -17.5t-75 -46t-68.5 -64.5t-50.5 -71q-10 -25 -18 -46.5t-10 -37.5zM881 1217l219 215 q10 6 23.5 15t23.5 9h127q16 0 29.5 -17.5t21.5 -29.5l96 -192h-168l-65 120l-121 -120h-186z" />
<glyph unicode="&#xd5;" horiz-adv-x="1476" d="M238 498q14 98 74.5 202.5t148.5 190.5t194.5 140t214.5 54h271q125 0 226 -27.5t166.5 -87t93.5 -153.5t5 -229q-14 -98 -75.5 -202.5t-152.5 -190.5t-206 -140.5t-237 -54.5h-205q-125 0 -229.5 22.5t-175 79t-102.5 152.5t-11 244zM625 526q-6 -39 6 -83t36.5 -80.5 t59.5 -61.5t76 -25h135q25 0 62.5 17.5t77.5 46.5t76 64.5t54 70.5q18 29 23 45l8 21q4 20 4 18q2 20 3 39.5t1 42.5q0 33 -8 62.5t-26.5 53t-50.5 38t-79 14.5h-165q-33 0 -71 -17.5t-75 -46t-68.5 -64.5t-50.5 -71q-10 -25 -18 -46.5t-10 -37.5zM786 1214l220 216 q10 6 22 15t23 9h168l67 -121l119 121h186l-3 -4t-23.5 -24.5t-65.5 -63.5t-127 -123q-8 -6 -21.5 -15.5t-23.5 -9.5h-168l-67 121l-119 -121h-187z" />
<glyph unicode="&#xd6;" horiz-adv-x="1476" d="M238 498q14 98 74.5 202.5t148.5 190.5t194.5 140t214.5 54h271q125 0 226 -27.5t166.5 -87t93.5 -153.5t5 -229q-14 -98 -75.5 -202.5t-152.5 -190.5t-206 -140.5t-237 -54.5h-205q-125 0 -229.5 22.5t-175 79t-102.5 152.5t-11 244zM625 526q-6 -39 6 -83t36.5 -80.5 t59.5 -61.5t76 -25h135q25 0 62.5 17.5t77.5 46.5t76 64.5t54 70.5q18 29 23 45l8 21q4 20 4 18q2 20 3 39.5t1 42.5q0 33 -8 62.5t-26.5 53t-50.5 38t-79 14.5h-165q-33 0 -71 -17.5t-75 -46t-68.5 -64.5t-50.5 -71q-10 -25 -18 -46.5t-10 -37.5zM895 1337q18 51 67.5 86 t104.5 35t81 -34.5t7.5 -86t-70 -86t-106.5 -34.5t-78.5 34.5t-5.5 85.5zM1265.5 1337.5q18.5 51.5 68.5 86t106 34.5q55 0 79.5 -35t6.5 -86t-68.5 -85.5t-105.5 -34.5t-80 34.5t-6.5 86z" />
<glyph unicode="&#xd7;" horiz-adv-x="817" d="M129 256h254l168 133l67 -133h254l-141 281l344 278h-254l-162 -131l-69 131h-254l139 -278z" />
<glyph unicode="&#xd8;" horiz-adv-x="1476" d="M238 498q14 98 74.5 202.5t148.5 190.5t194.5 140t214.5 54h271q125 0 226 -27.5t166.5 -87t93.5 -153.5t5 -229q-14 -98 -75.5 -202.5t-152.5 -190.5t-206 -140.5t-237 -54.5h-205q-125 0 -229.5 22.5t-175 79t-102.5 152.5t-11 244zM623 480q2 -23 8 -46l518 365 q-41 10 -66 10h-165q-33 0 -71 -17.5t-75 -46t-68.5 -64.5t-50.5 -71q-10 -25 -18 -46.5t-10 -37.5q-4 -23 -2 -46zM727 301q33 -25 76 -25h135q25 0 62.5 17.5t77.5 46.5t76 64.5t54 70.5q18 29 23 45l8 21q4 20 4 18q6 51 0 111z" />
<glyph unicode="&#xd9;" horiz-adv-x="1396" d="M231 401q10 53 26 106.5t34 123.5l162 454h387q-72 -209 -111 -324.5t-57.5 -173t-22.5 -72.5t-4 -21q-14 -98 13.5 -158t103.5 -60h100q49 0 91 20.5t75 51.5t57.5 66t38.5 63l222 608h389l-185 -505q-51 -141 -104 -249t-121 -181.5t-156 -111.5t-211 -38h-239 q-287 0 -408 91t-80 310zM1049 1343.5q-2 12.5 2 26.5q20 51 77 86q43 16 58 17q23 0 33 -19.5t16 -42.5l16 -45q0 -20 4.5 -41.5t-6.5 -50.5q-6 -18 -16 -33.5t-27 -23.5l-12 -9q-16 -4 -23 -4q-29 0 -60.5 20.5t-41.5 47.5l-14 47q-4 12 -6 24.5z" />
<glyph unicode="&#xda;" horiz-adv-x="1396" d="M231 401q10 53 26 106.5t34 123.5l162 454h387q-72 -209 -111 -324.5t-57.5 -173t-22.5 -72.5t-4 -21q-14 -98 13.5 -158t103.5 -60h100q49 0 91 20.5t75 51.5t57.5 66t38.5 63l222 608h389l-185 -505q-51 -141 -104 -249t-121 -181.5t-156 -111.5t-211 -38h-239 q-287 0 -408 91t-80 310zM1039.5 1240q0.5 15 7.5 34q10 29 30.5 50.5t36.5 41.5l49 45q23 23 47.5 42.5t46.5 19.5q23 0 46 -17q33 -35 12 -86q-4 -14 -16.5 -26.5l-24.5 -24.5l-47 -47q-14 -12 -33.5 -24.5t-41.5 -21.5t-42 -15.5t-35 -6.5q-18 0 -18 4l-8 9 q-10 8 -9.5 23z" />
<glyph unicode="&#xdb;" horiz-adv-x="1396" d="M231 401q10 53 26 106.5t34 123.5l162 454h387q-72 -209 -111 -324.5t-57.5 -173t-22.5 -72.5t-4 -21q-14 -98 13.5 -158t103.5 -60h100q49 0 91 20.5t75 51.5t57.5 66t38.5 63l222 608h389l-185 -505q-51 -141 -104 -249t-121 -181.5t-156 -111.5t-211 -38h-239 q-287 0 -408 91t-80 310zM848 1217l219 215q10 6 22.5 15t22.5 9h127q16 0 30.5 -17.5t22.5 -29.5l97 -192h-168l-68 120l-119 -120h-186z" />
<glyph unicode="&#xdc;" horiz-adv-x="1396" d="M231 401q10 53 26 106.5t34 123.5l162 454h387q-72 -209 -111 -324.5t-57.5 -173t-22.5 -72.5t-4 -21q-14 -98 13.5 -158t103.5 -60h100q49 0 91 20.5t75 51.5t57.5 66t38.5 63l222 608h389l-185 -505q-51 -141 -104 -249t-121 -181.5t-156 -111.5t-211 -38h-239 q-287 0 -408 91t-80 310zM864 1335q18 51 68.5 86t105.5 35t80 -35t6.5 -86t-68.5 -86t-106 -35q-55 0 -79.5 35t-6.5 86zM1235 1335q18 51 69.5 86t106.5 35t78.5 -35t5.5 -86t-67.5 -86t-104.5 -35t-80.5 35t-7.5 86z" />
<glyph unicode="&#xdd;" horiz-adv-x="1343" d="M432 1085h438l103 -256l291 256h438l-645 -569l-189 -516h-393l189 516zM1019 1240q1 15 7 34q10 29 31 50.5t37 41.5l49 45q23 23 47 42.5t47 19.5t45 -17q33 -35 12 -86q-4 -14 -16 -26.5t-25 -24.5l-47 -47q-14 -12 -33.5 -24.5t-41 -21.5t-42 -15.5t-34.5 -6.5 q-18 0 -19 4l-8 9q-10 8 -9 23z" />
<glyph unicode="&#xde;" horiz-adv-x="1392" d="M57 0l396 1085h393l-74 -204h547q51 0 90 -32t63.5 -78t38 -98t15.5 -93q0 -86 -42 -158t-105.5 -124t-139.5 -81t-145 -29h-576l-67 -188h-394zM557 291l197 174h327q2 0 9.5 9t15.5 21.5t14 23.5t8 18l5 10q0 2 -1 6l-2 4q-6 10 -21 27.5t-19 17.5h-420z" />
<glyph unicode="&#xdf;" horiz-adv-x="1374" d="M-47 -289h393l397 1096h383q4 0 19.5 -17.5t21.5 -27.5l1 -4t3 -6l-4 -11q-2 -6 -9 -17t-15 -23.5t-15.5 -21.5t-9.5 -9h-74l-315 -277h299q0 -14 -1 -28.5t-5 -20.5l-4 -10q-2 -2 -5 -6l-3 -4q-6 -6 -18.5 -13.5t-25 -14.5t-22.5 -12l-10 -5h-234q-57 -59 -106 -130 t-102 -149h469q121 0 195.5 15.5t121.5 47t76.5 83t60.5 122.5l8 23q10 27 21.5 64.5t11.5 66.5q-2 41 -22.5 63.5t-28.5 38.5q29 12 57.5 39t51 63t36 75.5t13.5 78.5v4q0 41 -12.5 93.5t-38 98.5t-64.5 77.5t-92 31.5h-789q-61 -66 -116.5 -133t-96.5 -137z" />
<glyph unicode="&#xe0;" d="M41 0q4 16 4 14v6l737 943q6 12 24.5 32.5t40 40t43 34.5t36.5 15h344q20 0 37.5 -22.5t30 -55t21.5 -68.5l15 -60l135 -879h-364l-43 231q-4 -12 -29.5 -46.5t-57.5 -73.5t-62.5 -72t-45.5 -39h-866zM686 274h416l-72 482l-344 -461v-21zM1029 1339.5q-3 12.5 3 26.5 q20 51 76 86q43 16 57 16q23 0 34 -19t15 -42l17 -45q0 -20 5 -42t-5 -50q-8 -18 -18.5 -33.5t-26.5 -24.5l-12 -8q-4 -4 -23 -4q-29 0 -60.5 20.5t-41.5 47.5l-13 47q-4 12 -7 24.5z" />
<glyph unicode="&#xe1;" d="M41 0q4 16 4 14v6l737 943q6 12 24.5 32.5t40 40t43 34.5t36.5 15h344q20 0 37.5 -22.5t30 -55t21.5 -68.5l15 -60l135 -879h-364l-43 231q-4 -12 -29.5 -46.5t-57.5 -73.5t-62.5 -72t-45.5 -39h-866zM686 274h416l-72 482l-344 -461v-21zM1023 1237.5q1 15.5 7 34.5 q10 29 31 50.5t35 41.5l49 45q23 23 47.5 42t46.5 19q23 0 45 -16q35 -35 14 -86q-4 -14 -16 -26.5t-25 -24.5l-47 -47q-29 -27 -76 -47.5t-75 -20.5q-16 0 -21 4l-6 8q-10 8 -9 23.5z" />
<glyph unicode="&#xe2;" d="M41 0q4 16 4 14v6l737 943q6 12 24.5 32.5t40 40t43 34.5t36.5 15h344q20 0 37.5 -22.5t30 -55t21.5 -68.5l15 -60l135 -879h-364l-43 231q-4 -12 -29.5 -46.5t-57.5 -73.5t-62.5 -72t-45.5 -39h-866zM686 274h416l-72 482l-344 -461v-21zM858 1214l219 216q10 6 21.5 15 t21.5 9h127q16 0 31.5 -17.5t24.5 -29.5l96 -193h-168l-70 121l-117 -121q-188 -2 -186 0z" />
<glyph unicode="&#xe3;" d="M41 0q4 16 4 14v6l737 943q6 12 24.5 32.5t40 40t43 34.5t36.5 15h344q20 0 37.5 -22.5t30 -55t21.5 -68.5l15 -60l135 -879h-364l-43 231q-4 -12 -29.5 -46.5t-57.5 -73.5t-62.5 -72t-45.5 -39h-866zM686 274h416l-72 482l-344 -461v-21zM797 1214l219 216q10 6 22.5 15 t22.5 9h168l67 -121l119 121h187l-4 -4q-3 -4 -23.5 -24.5t-65.5 -63.5t-127 -123q-8 -6 -21 -15.5t-24 -9.5h-168l-67 121l-119 -121h-186z" />
<glyph unicode="&#xe4;" d="M41 0q4 16 4 14v6l737 943q6 12 24.5 32.5t40 40t43 34.5t36.5 15h344q20 0 37.5 -22.5t30 -55t21.5 -68.5l15 -60l135 -879h-364l-43 231q-4 -12 -29.5 -46.5t-57.5 -73.5t-62.5 -72t-45.5 -39h-866zM686 274h416l-72 482l-344 -461v-21zM858 1337q18 51 67.5 86 t104.5 35t81 -34.5t7.5 -86t-70 -86t-106.5 -34.5t-78.5 34.5t-5.5 85.5zM1228.5 1337.5q18.5 51.5 69 86t105.5 34.5t79.5 -35t6.5 -86t-68.5 -85.5t-105.5 -34.5t-80 34.5t-6.5 86z" />
<glyph unicode="&#xe5;" d="M41 0q4 16 4 14v6l737 943q6 12 24.5 32.5t40 40t43 34.5t36.5 15h344q20 0 37.5 -22.5t30 -55t21.5 -68.5l15 -60l135 -879h-364l-43 231q-4 -12 -29.5 -46.5t-57.5 -73.5t-62.5 -72t-45.5 -39h-866zM686 274h416l-72 482l-344 -461v-21zM1047 1337q18 51 67 86t105 35 q55 0 80.5 -34.5t7 -86t-69.5 -86t-107 -34.5q-55 0 -78 34.5t-5 85.5z" />
<glyph unicode="&#xe6;" horiz-adv-x="2381" d="M41 0q4 16 4 14v6l737 943q6 12 24.5 32.5t40 40t43 34.5t36.5 15h344q18 0 36.5 -22.5t33 -55t23.5 -67.5t11 -61l29 -183l141 389h1168q-14 -29 -48 -74.5t-72 -91t-74 -78t-52 -32.5h-631l-117 -322l195 189h473l-293 -277h-407l-46 -123h785q-2 -4 -10.5 -17 t-16.5 -27.5t-16 -26.5l-10 -15q-18 -25 -50 -57.5t-63 -62t-54.5 -50t-25.5 -20.5h-1034l-43 231q-4 -12 -29.5 -46.5t-57.5 -73.5t-62.5 -72t-45.5 -39h-866zM686 274h416l-72 482l-344 -461v-21z" />
<glyph unicode="&#xe7;" horiz-adv-x="1292" d="M221 -238h535l86 240q8 -2 24 -2h23h49h164q78 61 137 134t107 142h-490q-35 0 -73 25t-69.5 61.5t-52 80.5t-20.5 83q0 31 16 84q12 35 33 71t46.5 64.5t56 46t63.5 17.5h533q72 61 132 130t119 146h-845q-109 0 -205 -54t-170 -140t-117 -190.5t-43 -202.5t26.5 -174 t74 -131.5t112 -92.5t139.5 -59l-32 -90h-109z" />
<glyph unicode="&#xe8;" horiz-adv-x="1280" d="M57 0l396 1085h1167q-14 -29 -48 -74.5t-72 -91t-73.5 -78t-52.5 -32.5h-631l-116 -322l194 189h473l-293 -277h-407l-45 -123h784q-2 -4 -10 -17t-16.5 -27.5t-16.5 -26.5l-10 -15q-18 -25 -50 -57.5t-62.5 -62t-54 -50t-26.5 -20.5h-1030zM940 1349.5q-2 12.5 4 26.5 q16 53 76 86q43 16 57 17q23 0 33 -19.5t16 -42.5l17 -45q0 -20 4 -41.5t-6 -50.5q-6 -18 -16.5 -33.5t-26.5 -23.5l-13 -9q-16 -4 -22 -4q-29 0 -60.5 20.5t-41.5 47.5l-15 47q-4 12 -6 24.5z" />
<glyph unicode="&#xe9;" horiz-adv-x="1280" d="M57 0l396 1085h1167q-14 -29 -48 -74.5t-72 -91t-73.5 -78t-52.5 -32.5h-631l-116 -322l194 189h473l-293 -277h-407l-45 -123h784q-2 -4 -10 -17t-16.5 -27.5t-16.5 -26.5l-10 -15q-18 -25 -50 -57.5t-62.5 -62t-54 -50t-26.5 -20.5h-1030zM936 1247q0 20 8 35 q10 29 30 50.5t36 41.5l49 45q23 23 47 42.5t47 19.5t45 -17q35 -35 14 -86q-4 -14 -16 -26.5t-25 -24.5l-49 -47q-14 -12 -33.5 -24.5t-41 -21.5t-42 -15.5t-34.5 -6.5t-19 5l-6 8q-10 10 -10 22z" />
<glyph unicode="&#xea;" horiz-adv-x="1280" d="M57 0l396 1085h1167q-14 -29 -48 -74.5t-72 -91t-73.5 -78t-52.5 -32.5h-631l-116 -322l194 189h473l-293 -277h-407l-45 -123h784q-2 -4 -10 -17t-16.5 -27.5t-16.5 -26.5l-10 -15q-18 -25 -50 -57.5t-62.5 -62t-54 -50t-26.5 -20.5h-1030zM774 1221l219 215 q10 6 23.5 15t23.5 9h127q16 0 29.5 -17.5t22.5 -29.5l96 -192h-168l-66 120l-120 -120h-187z" />
<glyph unicode="&#xeb;" horiz-adv-x="1280" d="M57 0l396 1085h1167q-14 -29 -48 -74.5t-72 -91t-73.5 -78t-52.5 -32.5h-631l-116 -322l194 189h473l-293 -277h-407l-45 -123h784q-2 -4 -10 -17t-16.5 -27.5t-16.5 -26.5l-10 -15q-18 -25 -50 -57.5t-62.5 -62t-54 -50t-26.5 -20.5h-1030zM801 1337q18 51 67.5 86 t104.5 35t80.5 -34.5t7 -86t-69.5 -86t-106 -34.5t-78.5 34.5t-5.5 85.5zM1171.5 1337.5q18.5 51.5 68.5 86t106 34.5q55 0 79.5 -35t6.5 -86t-68.5 -85.5t-106.5 -34.5q-55 0 -79.5 34.5t-6 86z" />
<glyph unicode="&#xec;" horiz-adv-x="507" d="M57 0l396 1085h393l-395 -1085h-394zM602 1341.5q-2 12.5 2 26.5q20 51 76 86q43 16 57 16q23 0 34 -19t15 -42l17 -45q2 -20 6 -42t-6 -50q-6 -18 -16.5 -33.5t-26.5 -24.5l-15 -8q-4 -4 -20 -4q-29 0 -61.5 20.5t-40.5 47.5l-15 47q-4 12 -6 24.5z" />
<glyph unicode="&#xed;" horiz-adv-x="507" d="M57 0l396 1085h393l-395 -1085h-394zM590 1241q0 20 8 35q10 29 30 50.5t36 41.5l49 45q23 23 47 42.5t47 19.5t45 -17q35 -35 14 -86q-4 -14 -16 -26.5t-25 -24.5l-49 -47q-14 -12 -33.5 -24.5t-41 -21.5t-42 -15.5t-34.5 -6.5t-19 4l-6 9q-10 10 -10 22z" />
<glyph unicode="&#xee;" horiz-adv-x="507" d="M57 0l396 1085h393l-395 -1085h-394zM428 1219l219 215q8 6 21.5 15t23.5 9h127q16 0 30.5 -17.5t22.5 -29.5l97 -192h-168l-68 120l-119 -120h-186z" />
<glyph unicode="&#xef;" horiz-adv-x="507" d="M57 0l396 1085h393l-395 -1085h-394zM430 1337q18 51 67.5 86t104.5 35t81 -34.5t7.5 -86t-70 -86t-106.5 -34.5t-78.5 34.5t-5.5 85.5zM800.5 1337.5q18.5 51.5 69 86t105.5 34.5t79.5 -35t6.5 -86t-68.5 -85.5t-105.5 -34.5t-80 34.5t-6.5 86z" />
<glyph unicode="&#xf0;" horiz-adv-x="1323" d="M171 255.5q5 71.5 32 143.5q55 113 140 183.5t216 93.5h557q10 53 -4 93t-65 40h-533q-29 61 -39 130t-12 146h846q106 0 163.5 -54t68.5 -140t-21.5 -190.5t-106.5 -202.5q-106 -147 -235 -243.5t-265.5 -153t-274.5 -79t-263 -22.5q-76 0 -122 35t-66.5 92t-15.5 128.5 zM563 279h119q47 0 111.5 43t134.5 94h-252q-45 -6 -64.5 -23.5t-42.5 -36.5z" />
<glyph unicode="&#xf1;" horiz-adv-x="1339" d="M57 0l396 1085h495l117 -610l223 610h389l-395 -1085h-496l-114 610l-221 -610h-394zM713 1214l219 216q10 6 22.5 15t22.5 9h168l67 -121l119 121h187l-4 -4q-3 -4 -23.5 -24.5t-65.5 -63.5t-127 -123q-8 -6 -21 -15.5t-24 -9.5h-168l-67 121l-119 -121h-186z" />
<glyph unicode="&#xf2;" horiz-adv-x="1476" d="M238 498q14 98 74.5 202.5t148.5 190.5t194.5 140t214.5 54h271q125 0 226 -27.5t166.5 -87t93.5 -153.5t5 -229q-14 -98 -75.5 -202.5t-152.5 -190.5t-206 -140.5t-237 -54.5h-205q-125 0 -229.5 22.5t-175 79t-102.5 152.5t-11 244zM625 526q-6 -39 6 -83t36.5 -80.5 t59.5 -61.5t76 -25h135q25 0 62.5 17.5t77.5 46.5t76 64.5t54 70.5q18 29 23 45l8 21q4 20 4 18q2 20 3 39.5t1 42.5q0 33 -8 62.5t-26.5 53t-50.5 38t-79 14.5h-165q-33 0 -71 -17.5t-75 -46t-68.5 -64.5t-50.5 -71q-10 -25 -18 -46.5t-10 -37.5zM1087.5 1345.5 q-2.5 12.5 2.5 26.5q20 51 75 86q43 16 58 17q23 0 34 -19.5t15 -42.5l16 -45q0 -20 5 -41.5t-5 -50.5q-8 -18 -18 -33.5t-25 -23.5l-14 -9q-4 -4 -23 -4q-29 0 -60.5 20.5t-41.5 47.5l-12 47q-4 12 -6.5 24.5z" />
<glyph unicode="&#xf3;" horiz-adv-x="1476" d="M238 498q14 98 74.5 202.5t148.5 190.5t194.5 140t214.5 54h271q125 0 226 -27.5t166.5 -87t93.5 -153.5t5 -229q-14 -98 -75.5 -202.5t-152.5 -190.5t-206 -140.5t-237 -54.5h-205q-125 0 -229.5 22.5t-175 79t-102.5 152.5t-11 244zM625 526q-6 -39 6 -83t36.5 -80.5 t59.5 -61.5t76 -25h135q25 0 62.5 17.5t77.5 46.5t76 64.5t54 70.5q18 29 23 45l8 21q4 20 4 18q2 20 3 39.5t1 42.5q0 33 -8 62.5t-26.5 53t-50.5 38t-79 14.5h-165q-33 0 -71 -17.5t-75 -46t-68.5 -64.5t-50.5 -71q-10 -25 -18 -46.5t-10 -37.5zM1067 1241q0 20 8 35 q10 29 30 50.5t36 41.5l49 45q23 23 47.5 42.5t46.5 19.5q23 0 45 -17q35 -35 14 -86q-4 -14 -16 -26.5t-24 -24.5l-50 -47q-14 -12 -33.5 -24.5t-41 -21.5t-42 -15.5t-34.5 -6.5t-19 4l-6 9q-10 10 -10 22z" />
<glyph unicode="&#xf4;" horiz-adv-x="1476" d="M238 498q14 98 74.5 202.5t148.5 190.5t194.5 140t214.5 54h271q125 0 226 -27.5t166.5 -87t93.5 -153.5t5 -229q-14 -98 -75.5 -202.5t-152.5 -190.5t-206 -140.5t-237 -54.5h-205q-125 0 -229.5 22.5t-175 79t-102.5 152.5t-11 244zM625 526q-6 -39 6 -83t36.5 -80.5 t59.5 -61.5t76 -25h135q25 0 62.5 17.5t77.5 46.5t76 64.5t54 70.5q18 29 23 45l8 21q4 20 4 18q2 20 3 39.5t1 42.5q0 33 -8 62.5t-26.5 53t-50.5 38t-79 14.5h-165q-33 0 -71 -17.5t-75 -46t-68.5 -64.5t-50.5 -71q-10 -25 -18 -46.5t-10 -37.5zM881 1217l219 215 q10 6 23.5 15t23.5 9h127q16 0 29.5 -17.5t21.5 -29.5l96 -192h-168l-65 120l-121 -120h-186z" />
<glyph unicode="&#xf5;" horiz-adv-x="1476" d="M229 393q0 57 9 99v6q14 98 74.5 202.5t148.5 190.5t194.5 140t214.5 54h271q111 0 203 -21.5t158.5 -67.5t103 -119.5t36.5 -176.5q0 -27 -3 -54t-7 -58q-14 -98 -75.5 -202.5t-152.5 -190.5t-206 -140.5t-237 -54.5h-205q-115 0 -211 18.5t-166 63.5t-110 121t-40 190z M623 500q0 -37 14 -77t38.5 -73t57.5 -53.5t70 -20.5h135q25 0 62.5 17.5t77.5 46.5t76 64.5t54 70.5q18 29 23 45l8 21q4 20 4 18q2 16 3 33.5t1 36.5q0 33 -6 65.5t-24.5 58t-50 41t-83.5 15.5h-165q-33 0 -71 -17.5t-75 -46t-68.5 -64.5t-50.5 -71q-10 -25 -18 -46.5 t-10 -37.5q-2 -2 -2 -14v-12zM786 1214l220 216q10 6 22 15t23 9h168l67 -121l119 121h186l-3 -4t-23.5 -24.5t-65.5 -63.5t-127 -123q-8 -6 -21.5 -15.5t-23.5 -9.5h-168l-67 121l-119 -121h-187z" />
<glyph unicode="&#xf6;" horiz-adv-x="1476" d="M238 498q14 98 74.5 202.5t148.5 190.5t194.5 140t214.5 54h271q125 0 226 -27.5t166.5 -87t93.5 -153.5t5 -229q-14 -98 -75.5 -202.5t-152.5 -190.5t-206 -140.5t-237 -54.5h-205q-125 0 -229.5 22.5t-175 79t-102.5 152.5t-11 244zM625 526q-6 -39 6 -83t36.5 -80.5 t59.5 -61.5t76 -25h135q25 0 62.5 17.5t77.5 46.5t76 64.5t54 70.5q18 29 23 45l8 21q4 20 4 18q2 20 3 39.5t1 42.5q0 33 -8 62.5t-26.5 53t-50.5 38t-79 14.5h-165q-33 0 -71 -17.5t-75 -46t-68.5 -64.5t-50.5 -71q-10 -25 -18 -46.5t-10 -37.5zM895 1337q18 51 67.5 86 t104.5 35t81 -34.5t7.5 -86t-70 -86t-106.5 -34.5t-78.5 34.5t-5.5 85.5zM1265.5 1337.5q18.5 51.5 68.5 86t106 34.5q55 0 79.5 -35t6.5 -86t-68.5 -85.5t-105.5 -34.5t-80 34.5t-6.5 86z" />
<glyph unicode="&#xf7;" horiz-adv-x="884" d="M182 399l293 277h619l-293 -277h-619zM411.5 221q18.5 51 69.5 86t107 35q55 0 78.5 -35t5.5 -86t-67.5 -86t-104.5 -35t-81 35t-7.5 86zM645 854q18 51 67.5 86t104.5 35t81 -35t7.5 -86t-70 -86t-106.5 -35t-78.5 35t-5.5 86z" />
<glyph unicode="&#xf8;" horiz-adv-x="1476" d="M238 498q14 98 74.5 202.5t148.5 190.5t194.5 140t214.5 54h271q125 0 226 -27.5t166.5 -87t93.5 -153.5t5 -229q-14 -98 -75.5 -202.5t-152.5 -190.5t-206 -140.5t-237 -54.5h-205q-125 0 -229.5 22.5t-175 79t-102.5 152.5t-11 244zM623 480q2 -23 8 -46l518 365 q-41 10 -66 10h-165q-33 0 -71 -17.5t-75 -46t-68.5 -64.5t-50.5 -71q-10 -25 -18 -46.5t-10 -37.5q-4 -23 -2 -46zM727 301q33 -25 76 -25h135q25 0 62.5 17.5t77.5 46.5t76 64.5t54 70.5q18 29 23 45l8 21q4 20 4 18q6 51 0 111z" />
<glyph unicode="&#xf9;" horiz-adv-x="1396" d="M231 401q10 53 26 106.5t34 123.5l162 454h387q-72 -209 -111 -324.5t-57.5 -173t-22.5 -72.5t-4 -21q-14 -98 13.5 -158t103.5 -60h100q49 0 91 20.5t75 51.5t57.5 66t38.5 63l222 608h389l-185 -505q-51 -141 -104 -249t-121 -181.5t-156 -111.5t-211 -38h-239 q-287 0 -408 91t-80 310zM1049 1343.5q-2 12.5 2 26.5q20 51 77 86q43 16 58 17q23 0 33 -19.5t16 -42.5l16 -45q0 -20 4.5 -41.5t-6.5 -50.5q-6 -18 -16 -33.5t-27 -23.5l-12 -9q-16 -4 -23 -4q-29 0 -60.5 20.5t-41.5 47.5l-14 47q-4 12 -6 24.5z" />
<glyph unicode="&#xfa;" horiz-adv-x="1396" d="M231 401q10 53 26 106.5t34 123.5l162 454h387q-72 -209 -111 -324.5t-57.5 -173t-22.5 -72.5t-4 -21q-14 -98 13.5 -158t103.5 -60h100q49 0 91 20.5t75 51.5t57.5 66t38.5 63l222 608h389l-185 -505q-51 -141 -104 -249t-121 -181.5t-156 -111.5t-211 -38h-239 q-287 0 -408 91t-80 310zM1039.5 1240q0.5 15 7.5 34q10 29 30.5 50.5t36.5 41.5l49 45q23 23 47.5 42.5t46.5 19.5q23 0 46 -17q33 -35 12 -86q-4 -14 -16.5 -26.5l-24.5 -24.5l-47 -47q-14 -12 -33.5 -24.5t-41.5 -21.5t-42 -15.5t-35 -6.5q-18 0 -18 4l-8 9 q-10 8 -9.5 23z" />
<glyph unicode="&#xfb;" horiz-adv-x="1396" d="M231 401q10 53 26 106.5t34 123.5l162 454h387q-72 -209 -111 -324.5t-57.5 -173t-22.5 -72.5t-4 -21q-14 -98 13.5 -158t103.5 -60h100q49 0 91 20.5t75 51.5t57.5 66t38.5 63l222 608h389l-185 -505q-51 -141 -104 -249t-121 -181.5t-156 -111.5t-211 -38h-239 q-287 0 -408 91t-80 310zM848 1217l219 215q10 6 22.5 15t22.5 9h127q16 0 30.5 -17.5t22.5 -29.5l97 -192h-168l-68 120l-119 -120h-186z" />
<glyph unicode="&#xfc;" horiz-adv-x="1396" d="M231 401q10 53 26 106.5t34 123.5l162 454h387q-72 -209 -111 -324.5t-57.5 -173t-22.5 -72.5t-4 -21q-14 -98 13.5 -158t103.5 -60h100q49 0 91 20.5t75 51.5t57.5 66t38.5 63l222 608h389l-185 -505q-51 -141 -104 -249t-121 -181.5t-156 -111.5t-211 -38h-239 q-287 0 -408 91t-80 310zM864 1335q18 51 68.5 86t105.5 35t80 -35t6.5 -86t-68.5 -86t-106 -35q-55 0 -79.5 35t-6.5 86zM1235 1335q18 51 69.5 86t106.5 35t78.5 -35t5.5 -86t-67.5 -86t-104.5 -35t-80.5 35t-7.5 86z" />
<glyph unicode="&#xfd;" horiz-adv-x="1343" d="M432 1085h438l103 -256l291 256h438l-645 -569l-189 -516h-393l189 516zM1019 1240q1 15 7 34q10 29 31 50.5t37 41.5l49 45q23 23 47 42.5t47 19.5t45 -17q33 -35 12 -86q-4 -14 -16 -26.5t-25 -24.5l-47 -47q-14 -12 -33.5 -24.5t-41 -21.5t-42 -15.5t-34.5 -6.5 q-18 0 -19 4l-8 9q-10 8 -9 23z" />
<glyph unicode="&#xfe;" horiz-adv-x="1392" d="M57 0l396 1085h393l-74 -204h547q51 0 90 -32t63.5 -78t38 -98t15.5 -93q0 -86 -42 -158t-105.5 -124t-139.5 -81t-145 -29h-576l-67 -188h-394zM557 291l197 174h327q2 0 9.5 9t15.5 21.5t14 23.5t8 18l5 10q0 2 -1 6l-2 4q-6 10 -21 27.5t-19 17.5h-420z" />
<glyph unicode="&#xff;" horiz-adv-x="1343" d="M432 1085h438l103 -256l291 256h438l-645 -569l-189 -516h-393l189 516zM848 1335q18 51 68.5 86t105.5 35t79.5 -35t6.5 -86t-68.5 -86t-105.5 -35t-79.5 35t-6.5 86zM1218.5 1335q18.5 51 69.5 86t107 35q55 0 78.5 -35t5.5 -86t-67.5 -86t-104.5 -35t-81 35t-7.5 86z " />
<glyph unicode="&#x152;" horiz-adv-x="2160" d="M260 498q0 98 43 202.5t117 190.5t170 140t205 54h1706q-14 -29 -48 -74.5t-72 -91t-74 -78t-52 -32.5h-631l-117 -322l195 189h473l-293 -277h-407l-45 -123h784q-2 -4 -10.5 -17t-16.5 -27.5t-16 -26.5l-10 -15q-18 -25 -50 -57.5t-63 -62t-54.5 -50t-25.5 -20.5h-1030 q-127 0 -248 22.5t-217 79t-154.5 153t-58.5 243.5zM641 526q0 -39 20.5 -83t52 -80.5t69.5 -61.5t73 -25h182l195 533h-377q-33 0 -63.5 -17.5t-56 -46t-46 -64.5t-33.5 -71q-16 -53 -16 -84z" />
<glyph unicode="&#x153;" horiz-adv-x="2160" d="M260 498v4q0 98 43 202.5t117 188.5t170 138t205 54h1706q-14 -29 -48 -74.5t-72 -91t-74 -78t-52 -32.5h-631l-117 -322l195 189h473l-293 -277h-407l-45 -123h784q-2 -4 -10.5 -17t-16.5 -27.5t-16 -26.5l-10 -15q-18 -25 -50 -57.5t-63 -62t-54.5 -50t-25.5 -20.5 h-1030q-127 0 -248 22.5t-217 79t-154.5 153t-58.5 243.5zM641 526q0 -39 20.5 -83t52 -80.5t69.5 -61.5t73 -25h182l195 533h-377q-33 0 -63.5 -17.5t-56 -46t-46 -64.5t-33.5 -71q-16 -53 -16 -84z" />
<glyph unicode="&#x178;" horiz-adv-x="1343" d="M432 1085h438l103 -256l291 256h438l-645 -569l-189 -516h-393l189 516zM848 1335q18 51 68.5 86t105.5 35t79.5 -35t6.5 -86t-68.5 -86t-105.5 -35t-79.5 35t-6.5 86zM1218.5 1335q18.5 51 69.5 86t107 35q55 0 78.5 -35t5.5 -86t-67.5 -86t-104.5 -35t-81 35t-7.5 86z " />
<glyph unicode="&#x2c6;" horiz-adv-x="616" d="M346 846l221 215q8 6 21.5 15t23.5 9h127q16 0 29.5 -17t24.5 -30l94 -192h-168l-66 121l-121 -121h-186z" />
<glyph unicode="&#x2dc;" horiz-adv-x="796" d="M346 846l221 215q8 6 21.5 15t23.5 9h168l66 -120l121 120h186l-4 -4l-24.5 -24.5t-64.5 -63.5t-126 -123q-10 -6 -23.5 -15t-23.5 -9h-168l-66 121l-121 -121h-186z" />
<glyph unicode="&#x2000;" horiz-adv-x="740" />
<glyph unicode="&#x2001;" horiz-adv-x="1481" />
<glyph unicode="&#x2002;" horiz-adv-x="740" />
<glyph unicode="&#x2003;" horiz-adv-x="1481" />
<glyph unicode="&#x2004;" horiz-adv-x="493" />
<glyph unicode="&#x2005;" horiz-adv-x="370" />
<glyph unicode="&#x2006;" horiz-adv-x="246" />
<glyph unicode="&#x2007;" horiz-adv-x="246" />
<glyph unicode="&#x2008;" horiz-adv-x="185" />
<glyph unicode="&#x2009;" horiz-adv-x="296" />
<glyph unicode="&#x200a;" horiz-adv-x="82" />
<glyph unicode="&#x2010;" horiz-adv-x="739" d="M182 399h473l293 277h-473z" />
<glyph unicode="&#x2011;" horiz-adv-x="739" d="M182 399h473l293 277h-473z" />
<glyph unicode="&#x2012;" horiz-adv-x="739" d="M182 399h473l293 277h-473z" />
<glyph unicode="&#x2013;" horiz-adv-x="739" d="M182 399h473l293 277h-473z" />
<glyph unicode="&#x2014;" horiz-adv-x="884" d="M182 399h619l293 277h-619z" />
<glyph unicode="&#x2018;" horiz-adv-x="370" d="M356 825l27 76q10 27 35.5 58.5t54.5 59.5t56.5 47t43.5 19h17q25 0 36 -20.5t15 -50t2 -61.5t-4 -52l-27 -76q-20 -53 -71.5 -92t-104.5 -39q-55 0 -77.5 39t-2.5 92z" />
<glyph unicode="&#x2019;" horiz-adv-x="370" d="M373 827.5q2 30.5 6 53.5l27 75q20 53 70 92t104 39q55 0 78.5 -38.5t3.5 -92.5l-27 -75q-10 -27 -36 -58.5t-54.5 -59.5t-57 -47.5t-43.5 -19.5h-16q-25 0 -37 20.5t-16 50.5t-2 60.5z" />
<glyph unicode="&#x201a;" horiz-adv-x="425" d="M75 -2.5q1 34.5 3 59.5l31 86q25 59 84 102.5t124 43.5q66 0 95.5 -43t7.5 -103l-31 -86q-10 -29 -38.5 -64.5t-63.5 -66t-69 -52t-52 -21.5h-19q-31 0 -46 23.5t-21 55t-5 66z" />
<glyph unicode="&#x201c;" horiz-adv-x="667" d="M358 825l27 76q10 27 35.5 58.5t54.5 59.5t56.5 47t43.5 19h17q25 0 36 -20.5t15 -50t2 -61.5t-4 -52l-27 -76q-20 -53 -71 -92t-105 -39q-55 0 -77.5 39t-2.5 92zM655 825l27 76q10 27 35.5 58.5t54.5 59.5t56.5 47t43.5 19h17q25 0 36 -20.5t15 -50t2 -61.5t-4 -52 l-27 -76q-20 -53 -71.5 -92t-104.5 -39q-55 0 -77.5 39t-2.5 92z" />
<glyph unicode="&#x201d;" horiz-adv-x="667" d="M373 827.5q2 30.5 6 53.5l27 75q20 53 70 92t104 39q55 0 78.5 -38.5t3.5 -92.5l-27 -75q-10 -27 -36 -58.5t-54.5 -59.5t-57 -47.5t-43.5 -19.5h-16q-25 0 -37 20.5t-16 50.5t-2 60.5zM670 827.5q2 30.5 6 53.5l26 75q20 53 70.5 92t104.5 39q55 0 78.5 -38.5t2.5 -92.5 l-26 -75q-10 -27 -36 -58.5t-54.5 -59.5t-57 -47.5t-43.5 -19.5h-16q-25 0 -37 20.5t-16 50.5t-2 60.5z" />
<glyph unicode="&#x201e;" horiz-adv-x="780" d="M75 -2.5q1 34.5 3 59.5l31 86q25 59 84 102.5t124 43.5q66 0 95.5 -43t7.5 -103l-31 -86q-10 -29 -38.5 -64.5t-63.5 -66t-69 -52t-52 -21.5h-19q-31 0 -46 23.5t-21 55t-5 66zM429 -2.5q1 34.5 3 59.5l31 86q25 59 84 102.5t125 43.5t95.5 -43t6.5 -103l-31 -86 q-10 -29 -38.5 -64.5t-63.5 -66t-68.5 -52t-52.5 -21.5h-18q-31 0 -46.5 23.5t-21.5 55t-5 66z" />
<glyph unicode="&#x2022;" horiz-adv-x="729" d="M254 526q2 16 10 38t19 46q18 35 50 71t68.5 64.5t74.5 46t71 17.5h166q47 0 78.5 -14.5t50 -38t27 -53t8.5 -62.5q0 -23 -1.5 -42t-3.5 -40q0 2 -4 -18l-8 -21q-4 -16 -22 -45q-18 -35 -54 -70.5t-76 -64.5t-78 -46.5t-63 -17.5h-135q-41 0 -75.5 25t-59.5 61.5 t-37 80.5t-6 83z" />
<glyph unicode="&#x2026;" horiz-adv-x="1148" d="M109 143q-23 -59 7.5 -101t96.5 -42q33 0 65.5 11.5t60.5 30.5t49.5 45t31.5 56q23 59 -7 102.5t-96 43.5t-124.5 -43.5t-83.5 -102.5zM467 143q-23 -59 8 -101t96 -42q33 0 66 11.5t60.5 30.5t49 45t31.5 56q23 59 -7 102.5t-95 43.5q-66 0 -125 -43.5t-84 -102.5z M831 143q-23 -59 8 -101t97 -42q33 0 65.5 11.5t60.5 30.5t49.5 45t31.5 56q23 59 -7 102.5t-96 43.5t-125 -43.5t-84 -102.5z" />
<glyph unicode="&#x202f;" horiz-adv-x="296" />
<glyph unicode="&#x2039;" horiz-adv-x="354" d="M229 475l47 127q6 16 31 36.5t41 33.5l254 166l-61 -168l-162 -111l94 -76l-67 -186l-164 141q-4 6 -10.5 16.5t-2.5 20.5z" />
<glyph unicode="&#x203a;" horiz-adv-x="354" d="M162 293l61 168l162 110l-94 76l67 187h2v2l162 -144q4 -6 9.5 -16t0.5 -21l-45 -127q-6 -16 -30.5 -36.5t-40.5 -32.5z" />
<glyph unicode="&#x205f;" horiz-adv-x="370" />
<glyph unicode="&#x20ac;" horiz-adv-x="1515" d="M160 336l256 164h67l4 61h-245l256 164h39q33 72 83 137.5t112.5 114.5t135 78.5t150.5 29.5h846q-59 -78 -120 -146.5t-132 -129.5h-533q-39 0 -73.5 -24.5t-61.5 -59.5h404l-256 -164h-226l-4 -47q0 2 4 -14h400l-256 -164h-47q53 -59 116 -60h490 q-47 -70 -106.5 -142.5t-137.5 -133.5h-164q-106 0 -210.5 15.5t-193.5 54.5t-154.5 103.5t-94.5 162.5h-348z" />
<glyph unicode="&#x25fc;" horiz-adv-x="1085" d="M0 0v1085h1085v-1085h-1085z" />
</font>
</defs>
</svg>
